<svg width="313" height="141" fill="none" xmlns="http://www.w3.org/2000/svg"><path d="M120.142 81.229h-2.58v-2.14h7.903v2.14h-2.579v9.659h-2.744v-9.659zm6.09.878h2.69v8.781h-2.69v-8.78zm0-3.841h2.69v2.36h-2.69v-2.36zm4.446 5.65c0-.823 0-1.372-.055-1.81h2.415c0 .548.055 1.042.055 1.59h.055c.548-.932.933-1.7 2.469-1.7h.384v2.469c-.274-.055-.548-.11-.878-.11-1.536 0-1.756 1.372-1.756 2.635v3.95h-2.689v-7.024zm9.987 5.27c.933 0 1.372-.988 1.372-2.744 0-1.701-.439-2.689-1.372-2.689s-1.372.933-1.372 2.69c0 1.755.439 2.743 1.372 2.743zm0-7.244c2.689 0 4.116 1.866 4.116 4.5 0 2.69-1.427 4.555-4.116 4.555-2.689 0-4.116-1.866-4.116-4.555 0-2.634 1.427-4.5 4.116-4.5zm8.399-3.676h-2.689v12.622h2.689V78.266zm14.214 3.237c-.659-.33-1.592-.604-2.305-.604-.878 0-1.592.384-1.592 1.263 0 2.14 4.61 1.152 4.61 5.323 0 2.25-1.756 3.567-4.116 3.567-1.427 0-2.689-.33-3.183-.494l.165-2.305c.823.33 1.536.714 2.579.714.878 0 1.701-.44 1.701-1.372 0-2.25-4.61-1.153-4.61-5.379 0-.329.11-3.347 4.061-3.347 1.098 0 1.757.164 2.745.384l-.055 2.25zm6.475-2.963h1.976v2.14h-1.976v-2.14zm-2.909 0h1.976v2.14h-1.976v-2.14zm6.202 10.482c0 .823 0 1.372.055 1.811h-2.415c-.055-.384-.055-.878-.055-1.481h-.055c-.384.932-1.097 1.591-2.469 1.591-1.921 0-2.58-1.427-2.58-3.183v-5.763h2.635v5.434c0 1.097.494 1.372 1.042 1.372.878 0 1.153-.769 1.153-1.866v-4.94h2.634v7.025h.055zm5.543.054c1.097 0 1.317-1.591 1.317-2.58 0-1.371-.275-2.688-1.317-2.688-1.153 0-1.263 1.317-1.263 2.689-.055.933.055 2.58 1.263 2.58zm4.006-.164c0 1.097.055 1.591.055 1.975h-2.525c-.055-.33-.055-.768-.055-1.372h-.055c-.274.549-.878 1.537-2.414 1.537-1.976 0-3.074-1.921-3.074-4.72 0-2.36.878-4.335 3.074-4.335 1.207 0 1.92.658 2.25 1.426h.055v-5.158h2.689v10.647zm.989-6.805h1.537v-1.811l2.579-.823v2.634h1.701v1.866H187.7v4.006c0 .878.384 1.098.878 1.098.384 0 .604-.055.878-.165v1.866c-.274.11-.988.22-1.866.22-1.372 0-2.579-.659-2.579-2.58v-4.445h-1.427v-1.866zm7.135 0h2.634v8.781h-2.634v-8.78zm0-3.841h2.634v2.36h-2.634v-2.36zm4.443 5.65c0-.823 0-1.372-.055-1.81h2.415c0 .548.055 1.042.055 1.59h.055c.549-.932.933-1.7 2.47-1.7h.384v2.469c-.275-.055-.549-.11-.878-.11-1.537 0-1.757 1.372-1.757 2.635v3.95h-2.689v-7.024zm9.659 5.27c.933 0 1.372-.988 1.372-2.744 0-1.701-.439-2.689-1.372-2.689s-1.372.933-1.372 2.69c0 1.755.439 2.743 1.372 2.743zm0-7.244c2.689 0 4.116 1.866 4.116 4.5 0 2.69-1.427 4.555-4.116 4.555-2.689 0-4.116-1.866-4.116-4.555 0-2.634 1.427-4.5 4.116-4.5zm7.958-3.676h-2.634v12.622h2.634V78.266zm9.002 2.963h-2.58v-2.14h7.903v2.14h-2.579v9.659h-2.744v-9.659zm5.377 2.689c0-.823 0-1.372-.054-1.81h2.414c0 .548.055 1.042.055 1.59h.055c.549-.932.933-1.7 2.47-1.7h.384v2.47a4.196 4.196 0 00-.878-.11c-1.537 0-1.756 1.371-1.756 2.634v3.951h-2.69v-7.025zM238.3 85.73c0-1.098-.275-2.14-1.372-2.14-1.372 0-1.372 1.7-1.372 2.14h2.744zm2.469 1.481h-5.159c0 1.043.659 2.03 2.196 2.03.933 0 1.811-.329 2.469-.713l.055 2.03a8.128 8.128 0 01-2.799.495c-3.073 0-4.445-1.866-4.445-4.555 0-2.36 1.372-4.5 3.896-4.5.769 0 3.787 0 3.787 4.555v.658zm6.201-1.756c0-1.098-.494-1.372-1.042-1.372-.879 0-1.153.768-1.153 1.866v4.94h-2.634v-6.97c0-.824 0-1.373-.055-1.812h2.415c.055.385.055.878.055 1.482h.054c.385-.933 1.098-1.591 2.47-1.591 1.921 0 2.579 1.426 2.579 3.183v5.762h-2.634v-5.488h-.055zm3.676-3.348h1.537v-1.81l2.58-.824v2.634h1.701v1.866h-1.701v4.007c0 .878.384 1.097.878 1.097.384 0 .603-.055.878-.164v1.865c-.275.11-.988.22-1.866.22-1.372 0-2.58-.659-2.58-2.58v-4.445h-1.427v-1.866zm7.19 0h2.689v8.781h-2.689v-8.78zm0-3.841h2.689v2.36h-2.689v-2.36zm9.275 7.187c0-1.098-.494-1.372-1.043-1.372-.878 0-1.152.768-1.152 1.866v4.939h-2.635v-6.97c0-.823 0-1.372-.054-1.81h2.414c.055.383.055.877.055 1.48h.055c.384-.932 1.098-1.59 2.47-1.59 1.921 0 2.579 1.426 2.579 3.182v5.763h-2.689v-5.488zm8.232 3.733c.933 0 1.372-.988 1.372-2.744 0-1.701-.439-2.689-1.372-2.689s-1.372.933-1.372 2.69c0 1.755.439 2.743 1.372 2.743zm0-7.244c2.689 0 4.116 1.866 4.116 4.5 0 2.69-1.427 4.555-4.116 4.555-2.69 0-4.116-1.866-4.116-4.555 0-2.634 1.426-4.5 4.116-4.5z" fill="#E30613"/><path d="M120.142 96.815h-2.58v-2.14h7.903v2.14h-2.579v9.604h-2.744v-9.604zm6.09.824h2.69v8.781h-2.69v-8.781zm0-3.842h2.69v2.36h-2.69v-2.36zm4.446 5.704c0-.823 0-1.372-.055-1.81h2.415c0 .548.055 1.042.055 1.59h.055c.548-.932.933-1.7 2.469-1.7h.384v2.469a4.253 4.253 0 00-.878-.11c-1.536 0-1.756 1.372-1.756 2.634v3.952h-2.689v-7.025zm9.987 5.271c.933 0 1.372-.988 1.372-2.744 0-1.701-.439-2.69-1.372-2.69s-1.372.934-1.372 2.69c0 1.701.439 2.744 1.372 2.744zm0-7.244c2.689 0 4.116 1.866 4.116 4.5s-1.427 4.555-4.116 4.555c-2.689 0-4.116-1.866-4.116-4.555 0-2.634 1.427-4.5 4.116-4.5zm7.96-3.731h-2.635v12.623h2.635V93.797zm5.378 10.976c.933 0 1.372-.988 1.372-2.744 0-1.701-.439-2.689-1.372-2.689s-1.372.933-1.372 2.689c0 1.702.439 2.744 1.372 2.744zm0-7.244c2.689 0 4.116 1.866 4.116 4.5 0 2.635-1.427 4.555-4.116 4.555-2.689 0-4.116-1.866-4.116-4.555 0-2.634 1.427-4.5 4.116-4.5zm15.477-.604l-1.427 4.884h2.634l-1.207-4.884zm1.756 6.86h-3.677l-.823 2.634h-2.689l3.896-11.744h3.019l3.787 11.744h-2.854l-.659-2.634zm7.189-9.988h-2.689v12.623h2.689V93.797zm1.042 3.841h1.536v-1.81l2.58-.824v2.634h1.701v1.866h-1.701v4.006c0 .878.384 1.098.878 1.098.384 0 .604-.055.878-.165v1.866c-.274.11-.988.22-1.866.22-1.372 0-2.579-.659-2.579-2.58v-4.445h-1.427v-1.866zm10.975 7.135c.933 0 1.372-.988 1.372-2.744 0-1.702-.439-2.69-1.372-2.69s-1.372.934-1.372 2.69c0 1.701.439 2.744 1.372 2.744zm0-7.244c2.689 0 4.116 1.865 4.116 4.5 0 2.634-1.427 4.555-4.116 4.555-2.689 0-4.116-1.866-4.116-4.555 0-2.635 1.427-4.5 4.116-4.5zm11.856-.604l-1.427 4.884h2.635l-1.208-4.884zm1.757 6.86h-3.677l-.824 2.634h-2.689l3.897-11.744h3.018l3.787 11.744h-2.854l-.658-2.634zm7.901.878c1.097 0 1.317-1.591 1.317-2.579 0-1.372-.275-2.69-1.317-2.69-1.153 0-1.263 1.318-1.263 2.69 0 .878.055 2.579 1.263 2.579zm4.006-.219c0 1.098.055 1.591.055 1.976h-2.525c-.055-.33-.055-.769-.055-1.372h-.054c-.275.548-.879 1.536-2.415 1.536-1.976 0-3.073-1.921-3.073-4.719 0-2.36.878-4.336 3.073-4.336 1.207 0 1.921.659 2.25 1.427h.055v-5.159h2.689v10.647zm1.757-6.805h2.634v8.781h-2.634v-8.781zm0-3.842h2.634v2.36h-2.634v-2.36zm8.233 10.756c1.097 0 1.317-1.317 1.317-2.525 0-.988-.22-2.58-1.317-2.58-1.208 0-1.318 1.702-1.318 2.58.055.714.165 2.525 1.318 2.525zm4.006.823c0 1.262-.055 4.829-4.445 4.829-1.263 0-2.305-.274-3.184-.548l.11-2.196c.439.22 1.537.769 2.744.769 2.086 0 2.195-1.537 2.195-3.348h-.054c-.165.494-.824 1.537-2.305 1.537-1.537 0-3.074-1.098-3.074-4.391 0-2.799 1.098-4.555 3.128-4.555 1.537 0 2.141.988 2.36 1.537h.055l.055-1.372h2.525c-.055.384-.055.878-.055 1.975v5.763h-.055zm6.75-4.06c0-1.098-.274-2.14-1.372-2.14-1.372 0-1.372 1.701-1.372 2.14h2.744zm2.415 1.427h-5.159c0 1.042.659 2.03 2.195 2.03.933 0 1.811-.329 2.47-.713l.055 2.03a8.112 8.112 0 01-2.799.494c-3.074 0-4.446-1.866-4.446-4.555 0-2.36 1.372-4.5 3.897-4.5.768 0 3.787 0 3.787 4.555v.659zm7.902-5.928h-2.58v-2.14h7.903v2.14h-2.579v9.604h-2.744v-9.604zm5.434 2.688c0-.823 0-1.372-.055-1.81h2.415c0 .548.055 1.042.055 1.59h.055c.549-.932.933-1.7 2.415-1.7h.384v2.469c-.275-.055-.549-.11-.878-.11-1.537 0-1.757 1.372-1.757 2.635v3.951h-2.634v-7.025zm11.142 1.813c0-1.098-.275-2.14-1.372-2.14-1.372 0-1.372 1.701-1.372 2.14h2.744zm2.414 1.426h-5.158c0 1.043.658 2.031 2.195 2.031.933 0 1.811-.329 2.469-.713l.055 2.03a8.136 8.136 0 01-2.799.494c-3.073 0-4.445-1.866-4.445-4.555 0-2.36 1.372-4.5 3.897-4.5.768 0 3.786 0 3.786 4.555v.658zm6.256-1.7c0-1.098-.494-1.373-1.043-1.373-.878 0-1.152.769-1.152 1.866v4.94h-2.634V99.56c0-.823 0-1.372-.055-1.811h2.414c.055.384.055.878.055 1.481h.055c.384-.933 1.098-1.591 2.47-1.591 1.921 0 2.579 1.427 2.579 3.183v5.598h-2.689v-5.378zm3.678-3.404h1.537v-1.81l2.579-.824v2.634h1.702v1.866h-1.702v4.007c0 .878.384 1.097.878 1.097.385 0 .604-.055.878-.164v1.866c-.274.109-.987.219-1.866.219-1.372 0-2.579-.659-2.579-2.579v-4.446h-1.427v-1.866zm7.133.001h2.689v8.781h-2.689v-8.781zm0-3.842h2.689v2.36h-2.689v-2.36zm9.273 7.243c0-1.098-.494-1.372-1.043-1.372-.878 0-1.152.768-1.152 1.866v4.939h-2.634v-6.915c0-.823 0-1.372-.055-1.81h2.414c.055.383.055.877.055 1.481h.055c.384-.933 1.098-1.591 2.47-1.591 1.921 0 2.579 1.426 2.579 3.183v5.597h-2.689v-5.378zm8.288 3.732c.933 0 1.372-.988 1.372-2.744 0-1.702-.439-2.69-1.372-2.69s-1.372.934-1.372 2.69c0 1.701.439 2.744 1.372 2.744zm0-7.244c2.689 0 4.116 1.865 4.116 4.5 0 2.634-1.427 4.555-4.116 4.555-2.689 0-4.116-1.866-4.116-4.555-.055-2.635 1.372-4.5 4.116-4.5z" fill="#8F1448"/><path d="M69.542 20.53c1.81-1.152 3.567-.384 4.17.384 1.098 1.372.824 3.129.494 4.775-.274 1.153-.933 3.403.33 4.171 1.372.878 2.908-.713 3.677-1.701.933-1.263 3.183-5.16 4.39-7.738 1.866-4.007 5.817-5.653 8.287-3.787 2.964 2.47-.22 6.201-1.427 8.726-.658 1.427-1.097 3.128.823 3.622 1.757.439 7.464-3.512 13.611-3.018 1.481.164 2.799 1.536 2.14 3.073-.604 1.427-4.829 4.28-6.092 5.488-1.646 1.591-2.085 3.293.604 4.335 2.579.988 9.439 3.183 11.305 4.171 1.866.988 2.799 4.171-1.097 5.324-3.897 1.152-8.287.274-11.58 1.591-1.592.714-1.756 2.69-.44 4.116 1.702 1.921 6.587 6.421 8.123 8.068 1.153 1.372 1.756 3.347.878 5.104-2.14 4.06-6.75 2.963-10.372 1.207-2.03-.768-9.44-6.476-10.427-3.293-.275 1.592 1.756 4.336 2.579 5.378 1.098 1.427 2.744 3.403 3.019 5.488.329 1.866-1.647 4.062-4.226 3.348-2.964-.823-5.324-3.841-6.86-4.226-1.757-.603-2.91.33-3.074 1.866-.274 2.854-.603 6.915-3.128 8.452-1.866 1.207-5.707.988-6.86-2.909-.768-2.634-.165-5.872 1.262-10.098 1.921-5.817-1.372-10.153-5.817-12.513 2.47-.493 5.982-2.36 5.982-7.244 0-5.378-4.994-8.78-5.653-16.519-.384-5.268.933-11.8 5.379-15.64z" fill="#657880"/><path d="M44.79 92.973c1.043.988 1.866 1.921 3.073 1.317 2.69-1.81-2.085-4.39-2.03-7.903.11-6.585 15.915-3.457 18-13.555 2.525 3.787-1.975 6.805 0 8.507 1.812 2.085-1.7 5.762-2.853 8.616-.714 2.14.768 4.5 4.17 3.128 1.592-.604 3.513-4.94 6.147-2.47 2.086 1.921-1.536 5.598 1.427 7.738 3.403 2.415 5.817 5.653 5.323 9.275-.548 3.787-3.347 5.818-6.805 5.927-2.085.055-4.28-.933-3.512-3.183.44-1.317.11-2.195-.768-2.744-1.921-1.207-4.062-.055-4.885 2.031-.933 2.36 3.019 4.884 2.47 7.189-.494 2.14-2.47 1.756-4.116 1.592-1.207-.11-1.976-.165-2.58.219-1.152.769-1.536 2.141-1.207 3.677.604 2.58-1.207 4.775-4.17 4.5-2.196-.219-3.458-2.634-2.306-4.939.769-1.591.275-2.579-.439-3.073-.878-.604-1.866-.165-3.238.219-1.481.439-2.853-.164-3.238-1.207-.384-1.098 0-2.634 1.427-4.116.988-1.043 1.811-2.25 2.086-3.951.329-2.086-.878-3.732-2.195-4.226-1.098-.439-2.305-.549-3.952.219-2.69 1.263-1.207 3.458-4.061 4.885-2.854 1.427-6.421-1.921-6.476-4.72 0-2.799 1.427-4.939 4.775-5.653 1.536-.329 5.378.22 6.31-1.262 1.099-1.701-1.81-2.799-2.469-4.445-.878-2.195.878-3.622 2.8-3.787 1.755-.33 2.633 1.591 3.292 2.195z" fill="#8F1448"/><path d="M117.617 43.91h7.903v2.415h-4.83v3.128h4.556v2.415h-4.556v3.457h5.049v2.47h-8.122V43.91zm10.043 0h3.238v9.33c0 1.371.494 2.25 1.811 2.25s1.811-.879 1.811-2.25v-9.33h3.238v8.835c0 3.458-1.921 5.269-4.994 5.269-3.073 0-4.994-1.811-4.994-5.269V43.91h-.11zm15.585 5.927h.988c1.208 0 1.866-.824 1.866-1.812 0-.548-.164-1.756-1.921-1.756h-.988v3.568h.055zm-3.128-5.928h4.994c2.25 0 4.171.988 4.171 3.568 0 .549-.055 2.853-2.744 3.402v.055c.988.11 1.372.659 1.921 2.305l1.427 4.5h-3.348l-1.043-3.732c-.548-1.865-.987-1.865-2.14-1.865v5.597h-3.238V43.91zm17.069 11.745c1.866 0 2.525-2.14 2.525-4.83 0-2.633-.659-4.829-2.525-4.829-1.865 0-2.524 2.14-2.524 4.83 0 2.689.659 4.83 2.524 4.83zm0-11.964c3.952 0 5.818 3.074 5.818 7.19 0 4.06-1.866 7.19-5.818 7.19-3.951 0-5.817-3.074-5.817-7.19 0-4.116 1.866-7.19 5.817-7.19zm12.129 6.586c.988 0 1.702-.714 1.702-1.976 0-1.372-.604-1.976-1.921-1.976h-.823v3.952h1.042zm-4.116-6.367h4.391c2.908 0 4.664 1.427 4.664 4.39 0 2.36-1.317 4.391-4.28 4.391h-1.537v5.05h-3.238V43.91zm14.927 2.691l-1.647 5.762h3.074l-1.427-5.763zm2.03 8.067h-4.28l-.933 3.073h-3.129l4.556-13.83h3.512l4.39 13.83h-3.293l-.823-3.073zm8.671-4.83h.988c1.263 0 1.866-.823 1.866-1.81 0-.55-.164-1.757-1.921-1.757h-.933v3.567zm-3.128-5.927h4.994c2.25 0 4.171.988 4.171 3.568 0 .548-.055 2.853-2.744 3.402v.055c.988.11 1.372.659 1.921 2.305l1.427 4.5h-3.348l-1.042-3.732c-.549-1.866-.988-1.866-2.141-1.866v5.598h-3.238V43.91zm11.635 0h7.903v2.415h-4.775v3.128h4.555v2.415h-4.555v3.457h4.994v2.47h-8.122V43.91zm16.026 5.928h4.829v7.464c-.713.329-2.359.713-4.555.713-2.524 0-6.53-1.317-6.53-7.244 0-3.403 1.865-7.08 7.079-7.08 1.592 0 2.744.33 3.567.55l-.219 2.743c-.714-.33-1.701-.768-3.128-.768-3.403 0-4.062 3.183-4.062 4.72 0 2.579 1.153 4.61 3.623 4.61.493 0 .823-.055 1.097-.22v-3.128h-1.811v-2.36h.11zm10.481-5.928h-3.237v13.83h3.237V43.91zm7.959 11.745c1.866 0 2.524-2.14 2.524-4.83 0-2.633-.658-4.829-2.524-4.829s-2.525 2.14-2.525 4.83c.055 2.689.659 4.83 2.525 4.83zm0-11.964c3.951 0 5.817 3.074 5.817 7.19 0 4.06-1.866 7.19-5.817 7.19-3.952 0-5.818-3.074-5.818-7.19.055-4.116 1.921-7.19 5.818-7.19zm7.958.219h3.787l4.006 9.605V43.91h2.854v13.885h-3.842l-3.897-10.043h-.054v10.043h-2.854V43.91zM117.562 61.472h7.903v2.415h-4.829v3.073h4.61v2.415h-4.61v3.512h5.049v2.415h-8.123v-13.83zm10.043.002h3.238v9.33c0 1.371.494 2.25 1.811 2.25 1.318 0 1.812-.879 1.812-2.25v-9.33h3.237v8.835c0 3.458-1.92 5.269-4.994 5.269-3.073 0-4.994-1.811-4.994-5.269v-8.835h-.11zm15.586 5.926h.988c1.262 0 1.865-.823 1.865-1.811 0-.549-.164-1.756-1.92-1.756h-.988V67.4h.055zm-3.129-5.927h4.995c2.25 0 4.171.988 4.171 3.567 0 .549-.055 2.854-2.744 3.403v.055c.987.11 1.372.658 1.92 2.305l1.427 4.5h-3.347l-1.043-3.732c-.549-1.866-.988-1.866-2.141-1.866v5.598h-3.238v-13.83zm11.635-.001h7.903v2.415h-4.775v3.073h4.556v2.415h-4.556v3.512h5.049v2.415h-8.177v-13.83zm16.026 5.927h4.83v7.463c-.714.33-2.36.714-4.555.714-2.525 0-6.531-1.317-6.531-7.244 0-3.403 1.866-7.08 7.079-7.08 1.592 0 2.744.33 3.568.549l-.22 2.744c-.713-.33-1.701-.768-3.128-.768-3.403 0-4.061 3.128-4.061 4.72 0 2.579 1.152 4.61 3.622 4.61.494 0 .823-.055 1.097-.22v-3.128h-1.811v-2.36h.11zm10.482-5.927h-3.238v13.83h3.238v-13.83zm7.958 11.745c1.866 0 2.525-2.14 2.525-4.83 0-2.634-.659-4.83-2.525-4.83-1.866 0-2.524 2.14-2.524 4.83.054 2.69.658 4.83 2.524 4.83zm0-12.02c3.951 0 5.817 3.074 5.817 7.19 0 4.061-1.866 7.19-5.817 7.19s-5.817-3.074-5.817-7.19c.055-4.061 1.921-7.19 5.817-7.19z" fill="#657880"/><path d="M304.759 43.691h-47.636v31.611h47.636v-31.61z" fill="#164194"/><path d="M279.899 50.55l1.042-.713.988.714-.384-1.153 1.043-.768h-1.263l-.384-1.153-.384 1.208-1.262-.055.988.768-.384 1.153zm-5.158 1.428l.987-.769.988.769-.384-1.208 1.043-.713h-1.262l-.385-1.207-.384 1.207h-1.262l1.043.713-.384 1.208zm-2.8.658l-.384 1.207h-1.262l.988.714-.384 1.207 1.042-.768.988.768-.384-1.207 1.043-.714h-1.262l-.385-1.207zm-1.427 7.574l1.042.713-.384-1.208.988-.713h-1.262l-.384-1.208-.385 1.208h-1.262l1.043.713-.384 1.208.988-.714zm1.812 4.005l-.385-1.207-.384 1.207h-1.262l.988.714-.384 1.152 1.042-.713.988.713-.384-1.152 1.043-.714h-1.262zm3.787 3.789l-.385-1.208-.384 1.208h-1.262l1.043.713-.384 1.208.987-.769.988.769-.329-1.208.988-.713h-1.262zm5.212 1.371l-.384-1.207-.384 1.207h-1.262l.988.714-.33 1.207.988-.768.988.768-.384-1.207 1.043-.714h-1.263zm5.158-1.371l-.384-1.208-.384 1.208h-1.207l.988.713-.385 1.208.988-.769 1.043.769-.384-1.208.988-.713h-1.263zm3.843-3.789l-.385-1.207-.384 1.207h-1.262l1.043.714-.385 1.152.988-.713.988.713-.384-1.152 1.043-.714h-1.262zm2.635-5.213h-1.262l-.385-1.208-.384 1.208h-1.262l1.043.713-.384 1.208.987-.769.988.769-.384-1.208 1.043-.713zm-4.008-3.238l.988-.768.988.768-.384-1.207 1.043-.714h-1.262l-.385-1.207-.384 1.207h-1.262l1.043.714-.385 1.207zm-2.799-6.914l-.384 1.207h-1.262l.988.713-.385 1.208 1.043-.769.988.769-.384-1.208 1.043-.713h-1.263l-.384-1.207z" fill="#FFED00"/><path d="M47.974 48.575c0 .165-.22.11-.329 0-1.427-2.47.933-4.39 3.897-4.884 1.701-2.525 5.707-2.69 7.902-1.317 1.866 1.152 2.854 3.512 2.69 4.994-.714-.055-1.208.33-1.318.768-.768 3.128-4.39 6.97.714 13.281 5.104 6.311.768 11.415-1.207 12.403-6.915 3.513-9.056-.439-13.83 1.976-3.129 1.591-2.03 5.543-4.94 5.598-2.25.055-1.207-4.226-4.5-4.39-2.085.054-2.25 3.402-3.402 5.432-.878 1.921-2.744 3.403-4.336 1.811-1.537-1.591-.549-4.28-.494-6.091.11-4.39-4.94 1.756-7.683 2.908-2.58 1.043-4.61.165-5.543-1.481-.988-1.647.768-3.348 1.756-4.5.988-1.208 3.073-3.238 2.47-4.995-.659-1.92-3.293-1.426-4.775-1.152-1.591.33-3.622 1.152-4.994-.055-1.317-1.153-.988-2.963-.055-4.17 2.25-3.02 7.19-3.897 7.738-8.343.494-4.17-7.024-3.567-6.201-7.134.713-3.019 6.256-1.592 8.342-1.921 4.61-.713 1.042-4.83-.11-7.025-.823-1.536-4.775-7.683-2.799-9.22 4.336-3.402 12.074 12.568 14.104 2.744.275-1.262.275-2.908 1.592-3.567 1.646-.768 3.622.823 4.72 1.921 3.622 3.512 4.939 8.78 4.829 13.665-.055 3.073-2.415 10.208.933 12.239 2.634 1.591 4.5-.659 6.037-2.745 1.207-1.646 4.774-4.61 3.567-6.366-.768-1.152-2.909-1.427-4.39-1.481-.055 0-.494.22-.385 1.097z" fill="#E30613"/></svg>