<?xml version="1.0" encoding="UTF-8"?> <svg xmlns="http://www.w3.org/2000/svg" xmlns:xlink="http://www.w3.org/1999/xlink" id="Capa_1" data-name="Capa 1" viewBox="0 0 456 186"><defs><style>.cls-1{fill:#498ca9;}.cls-2{fill:#213751;}.cls-3{fill:url(#Degradado_sin_nombre_20);}.cls-4{fill:#263f61;}.cls-5{fill:#c99d66;}.cls-6{fill:#11416b;}</style><linearGradient id="Degradado_sin_nombre_20" x1="16" y1="276.79" x2="459.6" y2="276.79" gradientTransform="translate(-9 -222)" gradientUnits="userSpaceOnUse"><stop offset="0.18" stop-color="#243d5f"></stop><stop offset="0.48" stop-color="#2b5176"></stop><stop offset="0.58" stop-color="#346285"></stop><stop offset="0.8" stop-color="#43819f"></stop><stop offset="0.91" stop-color="#498ca9"></stop></linearGradient></defs><circle class="cls-1" cx="282.05" cy="92.62" r="2.63"></circle><circle class="cls-1" cx="282.05" cy="83.47" r="2.63"></circle><circle class="cls-2" cx="282.05" cy="100.25" r="2.63"></circle><path class="cls-3" d="M7,86.23V23.34H54V33.62H17.59V76H54V86.23Zm46.4-35V61.54H22.14V51.26Z"></path><path class="cls-3" d="M81.63,55.09,66.69,23.34H78.56L93.79,55,78.36,86.23H66.59Zm40.58-31.75L107.08,55.09l16.48,31.14h-13L95,55l15.34-31.65Z"></path><path class="cls-3" d="M184.79,23.34V33.62H163V86.23H152.34V33.62H130.88V23.34Z"></path><path class="cls-3" d="M220.49,51.26h12.17a4.8,4.8,0,0,0,2.77-.81,7,7,0,0,0,2-2.06,9.08,9.08,0,0,0,1.13-2.78,13.07,13.07,0,0,0,.35-2.92,11.39,11.39,0,0,0-.44-3.07,11.82,11.82,0,0,0-1.29-2.93,7.34,7.34,0,0,0-2.08-2.21,4.67,4.67,0,0,0-2.72-.86H206.15V86.23H195.57V23.34h38a14,14,0,0,1,6.23,1.46A16.06,16.06,0,0,1,245,28.88a20.8,20.8,0,0,1,3.57,6.2,22.14,22.14,0,0,1,1.33,7.71,21,21,0,0,1-3.71,11.84,18.36,18.36,0,0,1-4.1,4.24A13.48,13.48,0,0,1,237,61.24l12.46,25H237.9Z"></path><path class="cls-3" d="M332.18,42.44a32.34,32.34,0,0,1,6.67-10.08,31.6,31.6,0,0,1,9.94-6.8A30.21,30.21,0,0,1,361.06,23a27.49,27.49,0,0,1,9.1,1.51,33.14,33.14,0,0,1,8.16,4.18,33.87,33.87,0,0,1,6.83,6.4,35.91,35.91,0,0,1,5,8.27l-8.61,5.84a30.19,30.19,0,0,0-3.66-6.15A28.69,28.69,0,0,0,373,38.15a21.57,21.57,0,0,0-5.69-3.27,17.15,17.15,0,0,0-6.18-1.16A19.7,19.7,0,0,0,353,35.43a21.31,21.31,0,0,0-6.63,4.64,22.91,22.91,0,0,0-4.5,6.75,20.2,20.2,0,0,0,0,16.13,22.17,22.17,0,0,0,4.5,6.7A20.86,20.86,0,0,0,353,74.19a19.88,19.88,0,0,0,8.06,1.66,16.85,16.85,0,0,0,5.69-1A23.73,23.73,0,0,0,372.19,72a26.88,26.88,0,0,0,4.8-4.28,31.76,31.76,0,0,0,3.85-5.5l7.72,7.87a37.48,37.48,0,0,1-11.77,12,28.85,28.85,0,0,1-15.73,4.44A30.21,30.21,0,0,1,348.79,84a31.62,31.62,0,0,1-9.94-6.81,32.11,32.11,0,0,1-6.67-10.08,32,32,0,0,1,0-24.69Z"></path><path class="cls-3" d="M450.6,23.34V33.62H428.84V86.23H418.16V33.62H396.69V23.34Z"></path><path class="cls-4" d="M13.32,135.18h2.36L21,148.32H18.64l-.88-2.21H11.37l-.85,2.21H8.18Zm3.57,8.73-2.37-6-2.3,6Z"></path><path class="cls-4" d="M26.54,143.4a5.83,5.83,0,0,1,.37-2.14,4.87,4.87,0,0,1,1-1.63,4.37,4.37,0,0,1,1.55-1,5,5,0,0,1,2-.37,6.54,6.54,0,0,1,.89.07,7.35,7.35,0,0,1,.84.19,4.57,4.57,0,0,1,.76.28,4,4,0,0,1,.62.35v-4.74h2.08v13.95H34.55v-.94a3.11,3.11,0,0,1-.64.43,5.27,5.27,0,0,1-.8.36,6.47,6.47,0,0,1-.89.24,4.56,4.56,0,0,1-.9.08,4.85,4.85,0,0,1-1.93-.37,4.21,4.21,0,0,1-1.51-1,4.85,4.85,0,0,1-1-1.61A5.91,5.91,0,0,1,26.54,143.4Zm2.18,0a3.06,3.06,0,0,0,.2,1.13,2.78,2.78,0,0,0,.57.93,2.85,2.85,0,0,0,.91.63,3,3,0,0,0,1.18.23,3.44,3.44,0,0,0,.84-.1,3.85,3.85,0,0,0,.81-.27,4.11,4.11,0,0,0,.73-.43,3.51,3.51,0,0,0,.59-.56v-3.44a3.89,3.89,0,0,0-.66-.51,4.34,4.34,0,0,0-.72-.35,5,5,0,0,0-.73-.2,4.56,4.56,0,0,0-.72-.06,3.44,3.44,0,0,0-1.28.23,2.71,2.71,0,0,0-.93.64,2.63,2.63,0,0,0-.59.95A3.44,3.44,0,0,0,28.72,143.4Z"></path><path class="cls-4" d="M40.25,137.05a1.38,1.38,0,0,1-.55-.11,1.28,1.28,0,0,1-.43-.28,1.88,1.88,0,0,1-.27-.42,1.44,1.44,0,0,1-.09-.51,1.46,1.46,0,0,1,.09-.52,1.51,1.51,0,0,1,.27-.42,1.45,1.45,0,0,1,.43-.28,1.38,1.38,0,0,1,.55-.1,1.48,1.48,0,0,1,.57.1,1.4,1.4,0,0,1,.42.28,1.17,1.17,0,0,1,.27.42,1.38,1.38,0,0,1,0,1,1.37,1.37,0,0,1-.27.42,1.24,1.24,0,0,1-.42.28A1.48,1.48,0,0,1,40.25,137.05Zm-1,1.35h2.07v9.92H39.22Z"></path><path class="cls-4" d="M44.27,145.28a6,6,0,0,0,1.85.89,7.65,7.65,0,0,0,2.07.28,5,5,0,0,0,1.19-.12,2.15,2.15,0,0,0,.76-.3,1,1,0,0,0,.41-.42,1.07,1.07,0,0,0,.12-.48.83.83,0,0,0-.26-.6,1.16,1.16,0,0,0-.84-.26,4.27,4.27,0,0,0-.59,0l-.66.08q-.34.06-.72.09a6.33,6.33,0,0,1-.76,0,4.26,4.26,0,0,1-1.43-.22,2.67,2.67,0,0,1-1-.6,2.45,2.45,0,0,1-.54-.89,3.7,3.7,0,0,1-.16-1.12,3.21,3.21,0,0,1,.29-1.39,3.27,3.27,0,0,1,.84-1.11,4,4,0,0,1,1.32-.73,5.51,5.51,0,0,1,1.73-.26,9.56,9.56,0,0,1,1,.07c.36.05.71.11,1.07.19a9.73,9.73,0,0,1,1,.28,6,6,0,0,1,.86.33L51.24,141a11.51,11.51,0,0,0-1.58-.56,6.78,6.78,0,0,0-1.62-.2,4,4,0,0,0-1,.1,2,2,0,0,0-.65.28A1.13,1.13,0,0,0,46,141a1,1,0,0,0-.12.47.79.79,0,0,0,.06.32.6.6,0,0,0,.2.25,1,1,0,0,0,.36.16,2.61,2.61,0,0,0,.54.05,4.49,4.49,0,0,0,.62,0l.69-.09.74-.09c.25,0,.51,0,.78,0a3.69,3.69,0,0,1,1.3.21,2.47,2.47,0,0,1,.92.59,2.62,2.62,0,0,1,.55.89,3.37,3.37,0,0,1,.18,1.12,3.48,3.48,0,0,1-.3,1.45,3.18,3.18,0,0,1-.9,1.17,4.41,4.41,0,0,1-1.48.77,7.07,7.07,0,0,1-2.05.27,8.79,8.79,0,0,1-1.38-.1,9.82,9.82,0,0,1-1.27-.29,8.83,8.83,0,0,1-1.13-.42,8.61,8.61,0,0,1-1-.52Z"></path><path class="cls-4" d="M56,140.27H54V138.4h2v-3.09H58v3.09h2v1.87H58v8H56Z"></path><path class="cls-4" d="M61.87,138.4h2.07v1.43a9.11,9.11,0,0,1,1.45-1.06,7.49,7.49,0,0,1,1.52-.68l.61,2.28a5.63,5.63,0,0,0-2.1.64,3.92,3.92,0,0,0-1.48,1.41v5.9H61.87Z"></path><path class="cls-4" d="M70.16,137.05a1.4,1.4,0,0,1-.56-.11,1.28,1.28,0,0,1-.43-.28,1.54,1.54,0,0,1-.26-.42,1.25,1.25,0,0,1-.1-.51,1.27,1.27,0,0,1,.1-.52,1.29,1.29,0,0,1,.26-.42,1.45,1.45,0,0,1,.43-.28,1.4,1.4,0,0,1,.56-.1,1.43,1.43,0,0,1,.56.1,1.29,1.29,0,0,1,.42.28,1.17,1.17,0,0,1,.27.42,1.27,1.27,0,0,1,.1.52,1.25,1.25,0,0,1-.1.51,1.37,1.37,0,0,1-.27.42,1.15,1.15,0,0,1-.42.28A1.43,1.43,0,0,1,70.16,137.05Zm-1,1.35h2.07v9.92H69.12Z"></path><path class="cls-4" d="M73.79,134.37h2.07v5a4.88,4.88,0,0,1,.65-.43,5.85,5.85,0,0,1,.8-.35,6.33,6.33,0,0,1,.88-.24,4.68,4.68,0,0,1,.91-.09,5.07,5.07,0,0,1,1.93.37,4.36,4.36,0,0,1,1.51,1,4.63,4.63,0,0,1,1,1.6,5.79,5.79,0,0,1,.36,2.08,6,6,0,0,1-.37,2.14,4.87,4.87,0,0,1-1,1.63,4.5,4.5,0,0,1-1.56,1,5.2,5.2,0,0,1-2,.36,6.51,6.51,0,0,1-.88-.06,7.35,7.35,0,0,1-.84-.19,5.68,5.68,0,0,1-.76-.28,4.16,4.16,0,0,1-.63-.36v.72H73.79Zm2.07,10.83a4,4,0,0,0,.67.51,4.25,4.25,0,0,0,.71.35,4,4,0,0,0,.74.19,3.65,3.65,0,0,0,.72.07,3.34,3.34,0,0,0,1.27-.23,2.72,2.72,0,0,0,1.53-1.59,3.48,3.48,0,0,0,.2-1.18,3.24,3.24,0,0,0-.2-1.13A2.75,2.75,0,0,0,80,140.63a3,3,0,0,0-1.19-.23,3.44,3.44,0,0,0-.84.1,3.85,3.85,0,0,0-.81.27,4,4,0,0,0-.72.43,3.21,3.21,0,0,0-.6.56Z"></path><path class="cls-4" d="M85.8,138.39h2.06v4.84a5.48,5.48,0,0,0,.13,1.26,2.46,2.46,0,0,0,.43,1,2,2,0,0,0,.81.63,3.33,3.33,0,0,0,1.27.22,3,3,0,0,0,.72-.09,3.25,3.25,0,0,0,.7-.26,3.33,3.33,0,0,0,.63-.39,2.63,2.63,0,0,0,.5-.5v-6.68h2.08v9.93H93.05v-.85a5.54,5.54,0,0,1-1.53.78,5,5,0,0,1-1.47.24,5.15,5.15,0,0,1-1.94-.33,3.23,3.23,0,0,1-1.32-1,3.86,3.86,0,0,1-.76-1.53,8.77,8.77,0,0,1-.23-2.08Z"></path><path class="cls-4" d="M99,140.27H97V138.4h2v-3.09h2.07v3.09h2v1.87h-2v8H99Z"></path><path class="cls-4" d="M104.53,143.33a5.41,5.41,0,0,1,.34-1.93,4.92,4.92,0,0,1,1-1.63,4.69,4.69,0,0,1,1.58-1.13,5.11,5.11,0,0,1,2.12-.42,5.19,5.19,0,0,1,2.13.43,4.76,4.76,0,0,1,1.62,1.16,5,5,0,0,1,1,1.74,6.28,6.28,0,0,1,.35,2.14V144a2.66,2.66,0,0,1,0,.3h-7.81a2.39,2.39,0,0,0,.43.82,2.84,2.84,0,0,0,.74.63,3.9,3.9,0,0,0,1,.42,5.27,5.27,0,0,0,1.3.15,5.84,5.84,0,0,0,1.43-.18,9.74,9.74,0,0,0,1.35-.46l.7,1.9a9,9,0,0,1-.83.4,5.77,5.77,0,0,1-.86.28,7.25,7.25,0,0,1-1,.18c-.33,0-.68.05-1,.05a6.75,6.75,0,0,1-2.44-.4A5.12,5.12,0,0,1,106,147a4.62,4.62,0,0,1-1.07-1.64A5.83,5.83,0,0,1,104.53,143.33Zm8-1a2.68,2.68,0,0,0-.35-.77,2.32,2.32,0,0,0-.59-.62,2.59,2.59,0,0,0-.81-.42,3.29,3.29,0,0,0-1-.15,3.35,3.35,0,0,0-1.08.16,3,3,0,0,0-.84.43,2.39,2.39,0,0,0-.61.62,2.44,2.44,0,0,0-.35.75Z"></path><path class="cls-4" d="M116.27,143.4a5.83,5.83,0,0,1,.37-2.14,4.85,4.85,0,0,1,1-1.63,4.5,4.5,0,0,1,1.56-1,5,5,0,0,1,2-.37,6.4,6.4,0,0,1,.88.07,6.49,6.49,0,0,1,.84.19,4.26,4.26,0,0,1,.76.28,3.72,3.72,0,0,1,.63.35v-4.74h2.07v13.95h-2.07v-.94a3.19,3.19,0,0,1-.65.43,4.51,4.51,0,0,1-.8.36,6.33,6.33,0,0,1-.88.24,4.73,4.73,0,0,1-.91.08,4.88,4.88,0,0,1-1.93-.37,4.3,4.3,0,0,1-1.51-1,4.67,4.67,0,0,1-1-1.61A5.69,5.69,0,0,1,116.27,143.4Zm2.17,0a3.28,3.28,0,0,0,.2,1.13,3,3,0,0,0,.58.93,2.91,2.91,0,0,0,.9.63,3,3,0,0,0,1.19.23,3.44,3.44,0,0,0,.84-.1A3.85,3.85,0,0,0,123,146a4.11,4.11,0,0,0,.73-.43,3.94,3.94,0,0,0,.59-.56v-3.44a3.6,3.6,0,0,0-.67-.51,4.25,4.25,0,0,0-.71-.35,4.76,4.76,0,0,0-.74-.2,4.46,4.46,0,0,0-.72-.06,3.34,3.34,0,0,0-1.27.23,2.85,2.85,0,0,0-.94.64,2.61,2.61,0,0,0-.58.95A3.22,3.22,0,0,0,118.44,143.4Z"></path><path class="cls-4" d="M133,143.4a6,6,0,0,1,.37-2.14,4.87,4.87,0,0,1,1-1.63,4.41,4.41,0,0,1,1.56-1,5,5,0,0,1,1.95-.37,6.52,6.52,0,0,1,.88.07,7.35,7.35,0,0,1,.84.19,4.57,4.57,0,0,1,.76.28,4.69,4.69,0,0,1,.63.35v-4.74h2.07v13.95H141v-.94a3.49,3.49,0,0,1-.65.43,4.86,4.86,0,0,1-.8.36,6.33,6.33,0,0,1-.88.24,4.73,4.73,0,0,1-.91.08,4.88,4.88,0,0,1-1.93-.37,4.21,4.21,0,0,1-1.51-1,4.67,4.67,0,0,1-1-1.61A5.69,5.69,0,0,1,133,143.4Zm2.18,0a3.28,3.28,0,0,0,.2,1.13,2.75,2.75,0,0,0,1.48,1.56,3,3,0,0,0,1.19.23,3.44,3.44,0,0,0,.84-.1,3.85,3.85,0,0,0,.81-.27,4,4,0,0,0,.72-.43,3.58,3.58,0,0,0,.6-.56v-3.44a4,4,0,0,0-.67-.51,4.25,4.25,0,0,0-.71-.35,5.08,5.08,0,0,0-.74-.2,4.56,4.56,0,0,0-.72-.06,3.34,3.34,0,0,0-1.27.23,2.75,2.75,0,0,0-.94.64,2.63,2.63,0,0,0-.59.95A3.44,3.44,0,0,0,135.19,143.4Z"></path><path class="cls-4" d="M145.24,145.19a3.21,3.21,0,0,1,.26-1.3,2.63,2.63,0,0,1,.78-1,3.49,3.49,0,0,1,1.29-.66,6.5,6.5,0,0,1,1.8-.23,10.16,10.16,0,0,1,1.61.13,12.84,12.84,0,0,1,1.74.41,2.08,2.08,0,0,0-.24-.86,2,2,0,0,0-.56-.69,2.4,2.4,0,0,0-.87-.45,3.72,3.72,0,0,0-1.15-.16,5.4,5.4,0,0,0-.77,0,7.22,7.22,0,0,0-.87.15,8.84,8.84,0,0,0-.88.25,4.72,4.72,0,0,0-.82.36l-.63-2a9,9,0,0,1,1-.37c.36-.11.73-.21,1.1-.29s.75-.14,1.12-.19a10.3,10.3,0,0,1,1.09-.07,4.14,4.14,0,0,1,3.44,1.42,7,7,0,0,1,1.13,4.36v4.32h-2.07v-.94a5,5,0,0,1-.71.43,4.83,4.83,0,0,1-.83.36,6.73,6.73,0,0,1-1,.24,6.35,6.35,0,0,1-1.09.08,5.2,5.2,0,0,1-1.7-.25,3.46,3.46,0,0,1-1.22-.7,2.83,2.83,0,0,1-.74-1A3.51,3.51,0,0,1,145.24,145.19Zm2.19-.08a1.06,1.06,0,0,0,.1.46,1.16,1.16,0,0,0,.34.4,1.91,1.91,0,0,0,.59.28,3.15,3.15,0,0,0,.87.1,5.11,5.11,0,0,0,2-.43,5,5,0,0,0,.8-.44,3.51,3.51,0,0,0,.6-.52v-.44a8.46,8.46,0,0,0-1-.27c-.31-.07-.6-.13-.88-.17l-.8-.09-.66,0a3.67,3.67,0,0,0-1,.1,2.07,2.07,0,0,0-.63.24.88.88,0,0,0-.33.37A1,1,0,0,0,147.43,145.11Z"></path><path class="cls-4" d="M158.8,140.27h-2V138.4h2v-3.09h2.07v3.09h2v1.87h-2v8H158.8Z"></path><path class="cls-4" d="M164.32,145.19a3.21,3.21,0,0,1,.25-1.3,2.84,2.84,0,0,1,.78-1,3.57,3.57,0,0,1,1.29-.66,6.53,6.53,0,0,1,1.81-.23,10.25,10.25,0,0,1,1.61.13,13.59,13.59,0,0,1,1.74.41,2.44,2.44,0,0,0-.24-.86A2.11,2.11,0,0,0,171,141a2.4,2.4,0,0,0-.87-.45,3.67,3.67,0,0,0-1.15-.16,5.4,5.4,0,0,0-.77,0,7.22,7.22,0,0,0-.87.15,8.84,8.84,0,0,0-.88.25,5.08,5.08,0,0,0-.82.36l-.63-2a8.5,8.5,0,0,1,1-.37c.35-.11.72-.21,1.09-.29s.75-.14,1.12-.19a10.47,10.47,0,0,1,1.09-.07,4.18,4.18,0,0,1,3.45,1.42,7,7,0,0,1,1.12,4.36v4.32h-2.07v-.94a4.85,4.85,0,0,1-.7.43,5.62,5.62,0,0,1-.83.36,6.55,6.55,0,0,1-1,.24,6.28,6.28,0,0,1-1.09.08,5.1,5.1,0,0,1-1.69-.25,3.51,3.51,0,0,1-1.23-.7,3,3,0,0,1-.74-1A3.51,3.51,0,0,1,164.32,145.19Zm2.18-.08a1.07,1.07,0,0,0,.11.46,1.12,1.12,0,0,0,.33.4,2,2,0,0,0,.59.28,3.18,3.18,0,0,0,.88.1,4.57,4.57,0,0,0,1.05-.12,4.89,4.89,0,0,0,1.75-.75,3.51,3.51,0,0,0,.6-.52v-.44a8.94,8.94,0,0,0-.94-.27c-.31-.07-.61-.13-.89-.17l-.8-.09-.66,0a3.77,3.77,0,0,0-1,.1,2.07,2.07,0,0,0-.63.24,1,1,0,0,0-.33.37A1,1,0,0,0,166.5,145.11Z"></path><path class="cls-4" d="M176.29,140.7h6.42v1.87h-6.42Z"></path><path class="cls-4" d="M185,138.4h2.07v.84a5,5,0,0,1,3-1,4.36,4.36,0,0,1,1.82.38,3.68,3.68,0,0,1,1.41,1.14,8.68,8.68,0,0,1,.9-.71,5.82,5.82,0,0,1,.88-.47,5.08,5.08,0,0,1,.9-.26,5.77,5.77,0,0,1,.94-.08,4.71,4.71,0,0,1,1.84.34,3.78,3.78,0,0,1,1.41,1,4.63,4.63,0,0,1,.91,1.64,7.4,7.4,0,0,1,.31,2.26v4.88h-2.06v-4.47a5.38,5.38,0,0,0-.19-1.46,3.37,3.37,0,0,0-.54-1.09,2.33,2.33,0,0,0-1.88-.9,2.94,2.94,0,0,0-.65.07,3,3,0,0,0-.64.22,2.46,2.46,0,0,0-.58.39,2.07,2.07,0,0,0-.48.54v6.7h-2.07v-4.47a5,5,0,0,0-.19-1.46,3.37,3.37,0,0,0-.54-1.09,2.43,2.43,0,0,0-.83-.67,2.54,2.54,0,0,0-1.07-.23,3,3,0,0,0-.72.09,3.35,3.35,0,0,0-.69.25,3.4,3.4,0,0,0-.63.38,3.65,3.65,0,0,0-.52.52v6.68H185Z"></path><path class="cls-4" d="M205.07,137.05a1.38,1.38,0,0,1-.55-.11,1.28,1.28,0,0,1-.43-.28,1.58,1.58,0,0,1-.27-.42,1.44,1.44,0,0,1-.09-.51,1.46,1.46,0,0,1,.09-.52,1.32,1.32,0,0,1,.27-.42,1.45,1.45,0,0,1,.43-.28,1.38,1.38,0,0,1,.55-.1,1.48,1.48,0,0,1,.57.1,1.54,1.54,0,0,1,.42.28,1.17,1.17,0,0,1,.27.42,1.46,1.46,0,0,1,.09.52,1.44,1.44,0,0,1-.09.51,1.37,1.37,0,0,1-.27.42,1.34,1.34,0,0,1-.42.28A1.48,1.48,0,0,1,205.07,137.05Zm-1,1.35h2.07v9.92H204Z"></path><path class="cls-4" d="M208.76,138.4h2.08v.84a5.55,5.55,0,0,1,1.58-.79,5.11,5.11,0,0,1,1.47-.23,4.37,4.37,0,0,1,1.75.34,3.91,3.91,0,0,1,1.4,1,4.65,4.65,0,0,1,.92,1.64,7.08,7.08,0,0,1,.33,2.26v4.88h-2.07v-4.47a5,5,0,0,0-.19-1.46,3.19,3.19,0,0,0-.55-1.09,2.43,2.43,0,0,0-.88-.67,2.84,2.84,0,0,0-1.15-.23,3.4,3.4,0,0,0-.69.08,4,4,0,0,0-.69.24,4.4,4.4,0,0,0-.66.39,3.17,3.17,0,0,0-.57.53v6.68h-2.08Z"></path><path class="cls-4" d="M221.92,137.05a1.38,1.38,0,0,1-.55-.11,1.28,1.28,0,0,1-.43-.28,1.88,1.88,0,0,1-.27-.42,1.44,1.44,0,0,1-.09-.51,1.46,1.46,0,0,1,.09-.52,1.51,1.51,0,0,1,.27-.42,1.45,1.45,0,0,1,.43-.28,1.38,1.38,0,0,1,.55-.1,1.45,1.45,0,0,1,.57.1,1.4,1.4,0,0,1,.42.28,1.17,1.17,0,0,1,.27.42,1.27,1.27,0,0,1,.1.52,1.25,1.25,0,0,1-.1.51,1.37,1.37,0,0,1-.27.42,1.24,1.24,0,0,1-.42.28A1.45,1.45,0,0,1,221.92,137.05Zm-1,1.35H223v9.92h-2.07Z"></path><path class="cls-4" d="M225.62,138.4h2.07v.84a5.69,5.69,0,0,1,1.58-.79,5.11,5.11,0,0,1,1.47-.23,4.37,4.37,0,0,1,1.75.34,3.82,3.82,0,0,1,1.4,1,4.65,4.65,0,0,1,.92,1.64,7.08,7.08,0,0,1,.33,2.26v4.88h-2.06v-4.47a5,5,0,0,0-.2-1.46,3.19,3.19,0,0,0-.55-1.09,2.43,2.43,0,0,0-.88-.67,2.81,2.81,0,0,0-1.15-.23,3.4,3.4,0,0,0-.69.08,4.34,4.34,0,0,0-.69.24,4.4,4.4,0,0,0-.66.39,3.17,3.17,0,0,0-.57.53v6.68h-2.07Z"></path><path class="cls-4" d="M239,150a7.58,7.58,0,0,0,.8.28c.27.08.53.14.79.19s.49.08.73.1l.62,0a4,4,0,0,0,1.44-.24,2.93,2.93,0,0,0,1-.65,2.62,2.62,0,0,0,.62-.93,3.32,3.32,0,0,0,.2-1.13v-.43a6.66,6.66,0,0,1-.62.42,5.22,5.22,0,0,1-.79.35,6,6,0,0,1-.91.24,4.62,4.62,0,0,1-1,.1A4.8,4.8,0,0,1,240,148a4.37,4.37,0,0,1-1.5-1,4.6,4.6,0,0,1-1-1.58,6.13,6.13,0,0,1,0-4.14,4.87,4.87,0,0,1,1-1.6,4.77,4.77,0,0,1,1.56-1,5.11,5.11,0,0,1,1.94-.36,6.54,6.54,0,0,1,.89.07,7.06,7.06,0,0,1,.85.19,4.46,4.46,0,0,1,.75.28,3.72,3.72,0,0,1,.63.35v-.71h2.07v8.78a7.64,7.64,0,0,1-.34,2.4,4.58,4.58,0,0,1-1,1.75,4.27,4.27,0,0,1-1.64,1.08,6.48,6.48,0,0,1-2.25.36c-.3,0-.62,0-.94,0s-.66-.08-1-.14-.65-.13-1-.21a8.24,8.24,0,0,1-.92-.28Zm.39-6.73a3.23,3.23,0,0,0,.19,1.13,2.78,2.78,0,0,0,.58.91,2.59,2.59,0,0,0,.89.62,3,3,0,0,0,1.19.22,3.58,3.58,0,0,0,.85-.1,3.85,3.85,0,0,0,.81-.27,4.11,4.11,0,0,0,.73-.43,3.49,3.49,0,0,0,.59-.56v-3.27a3.6,3.6,0,0,0-.67-.51,4.25,4.25,0,0,0-.71-.35,4.76,4.76,0,0,0-.74-.2,4.37,4.37,0,0,0-.72-.06,3.38,3.38,0,0,0-1.27.23,2.57,2.57,0,0,0-1.52,1.53A2.92,2.92,0,0,0,239.37,143.27Z"></path><path class="cls-4" d="M254.72,145.28a6.08,6.08,0,0,0,1.85.89,7.65,7.65,0,0,0,2.07.28,5,5,0,0,0,1.19-.12,2.15,2.15,0,0,0,.76-.3,1,1,0,0,0,.41-.42,1.07,1.07,0,0,0,.12-.48.83.83,0,0,0-.26-.6,1.16,1.16,0,0,0-.84-.26,4.27,4.27,0,0,0-.59,0l-.66.08q-.34.06-.72.09a6.33,6.33,0,0,1-.76,0,4.26,4.26,0,0,1-1.43-.22,2.67,2.67,0,0,1-1-.6,2.45,2.45,0,0,1-.54-.89,3.7,3.7,0,0,1-.16-1.12,3.21,3.21,0,0,1,.29-1.39,3.27,3.27,0,0,1,.84-1.11,4.1,4.1,0,0,1,1.32-.73,5.51,5.51,0,0,1,1.73-.26,9.56,9.56,0,0,1,1,.07c.36.05.71.11,1.07.19a9.73,9.73,0,0,1,1,.28,6,6,0,0,1,.86.33l-.65,1.93a11.51,11.51,0,0,0-1.58-.56,6.78,6.78,0,0,0-1.62-.2,4,4,0,0,0-1,.1,2,2,0,0,0-.65.28,1.13,1.13,0,0,0-.37.39,1,1,0,0,0-.12.47.79.79,0,0,0,.06.32.6.6,0,0,0,.2.25,1,1,0,0,0,.36.16,2.61,2.61,0,0,0,.54.05,4.49,4.49,0,0,0,.62,0l.69-.09.74-.09c.25,0,.51,0,.78,0a3.69,3.69,0,0,1,1.3.21,2.47,2.47,0,0,1,.92.59,2.62,2.62,0,0,1,.55.89,3.37,3.37,0,0,1,.18,1.12,3.48,3.48,0,0,1-.3,1.45,3.18,3.18,0,0,1-.9,1.17,4.41,4.41,0,0,1-1.48.77,7,7,0,0,1-2.05.27,8.79,8.79,0,0,1-1.38-.1,9.82,9.82,0,0,1-1.27-.29,8.83,8.83,0,0,1-1.13-.42,8.61,8.61,0,0,1-1-.52Z"></path><path class="cls-4" d="M264.66,143.36a5.31,5.31,0,0,1,.37-2,4.71,4.71,0,0,1,2.64-2.73,5.76,5.76,0,0,1,4.27,0,4.84,4.84,0,0,1,1.62,1.1,4.92,4.92,0,0,1,1,1.63,5.74,5.74,0,0,1,0,4,4.76,4.76,0,0,1-2.65,2.73,5.9,5.9,0,0,1-4.27,0,4.71,4.71,0,0,1-2.64-2.73A5.31,5.31,0,0,1,264.66,143.36Zm2.18,0a3.28,3.28,0,0,0,.2,1.13,3,3,0,0,0,.58.94,2.87,2.87,0,0,0,.94.65,3.06,3.06,0,0,0,1.25.24,3.13,3.13,0,0,0,1.25-.24,2.94,2.94,0,0,0,.93-.65,2.85,2.85,0,0,0,.58-.94,3.28,3.28,0,0,0,.2-1.13,3.33,3.33,0,0,0-.2-1.14,2.85,2.85,0,0,0-.58-.94,2.94,2.94,0,0,0-.93-.65,3.13,3.13,0,0,0-1.25-.24,3.06,3.06,0,0,0-1.25.24,2.87,2.87,0,0,0-.94.65,3,3,0,0,0-.58.94A3.33,3.33,0,0,0,266.84,143.36Z"></path><path class="cls-4" d="M277.94,140.27h-1.41V138.4h1.41a6.11,6.11,0,0,1,.24-1.79,3.73,3.73,0,0,1,.69-1.33,3,3,0,0,1,1.1-.83,3.59,3.59,0,0,1,1.46-.29,5.27,5.27,0,0,1,1.12.13,3.77,3.77,0,0,1,1,.38l-.73,2.09a1.81,1.81,0,0,0-.48-.22,2,2,0,0,0-.66-.1,1.51,1.51,0,0,0-1.16.48,2.29,2.29,0,0,0-.46,1.48h2.61v1.87H280v8h-2.08Z"></path><path class="cls-4" d="M285.47,140.27h-2V138.4h2v-3.09h2.08v3.09h2v1.87h-2v8h-2.08Z"></path><path class="cls-4" d="M290.24,138.39h2.41l2.15,6,.63,1.67.77-2.17-2.05-5.47h2l1,2.94,1-2.94h2l-2.05,5.47.77,2.17.64-1.67,2.15-6h2.4l-3.92,9.93h-2.25l-.76-1.92-.76,1.92h-2.25Z"></path><path class="cls-4" d="M305.16,145.19a3.05,3.05,0,0,1,.26-1.3,2.7,2.7,0,0,1,.77-1,3.57,3.57,0,0,1,1.29-.66,6.53,6.53,0,0,1,1.81-.23,10.25,10.25,0,0,1,1.61.13,13.59,13.59,0,0,1,1.74.41,2.44,2.44,0,0,0-.24-.86,2.11,2.11,0,0,0-.57-.69,2.43,2.43,0,0,0-.86-.45,3.78,3.78,0,0,0-1.16-.16,5.4,5.4,0,0,0-.77,0,7.22,7.22,0,0,0-.87.15c-.29.07-.59.15-.88.25a5.08,5.08,0,0,0-.82.36l-.63-2a8.5,8.5,0,0,1,1-.37c.35-.11.72-.21,1.09-.29s.75-.14,1.12-.19a10.47,10.47,0,0,1,1.09-.07,4.17,4.17,0,0,1,3.45,1.42,7,7,0,0,1,1.12,4.36v4.32h-2.07v-.94a4.85,4.85,0,0,1-.7.43,5.62,5.62,0,0,1-.83.36,6.55,6.55,0,0,1-1,.24,6.28,6.28,0,0,1-1.09.08,5.1,5.1,0,0,1-1.69-.25,3.51,3.51,0,0,1-1.23-.7,3,3,0,0,1-.74-1A3.51,3.51,0,0,1,305.16,145.19Zm2.18-.08a1.07,1.07,0,0,0,.11.46,1.12,1.12,0,0,0,.33.4,2,2,0,0,0,.59.28,3.23,3.23,0,0,0,.88.1,4.57,4.57,0,0,0,1.05-.12,4.89,4.89,0,0,0,1.75-.75,3.51,3.51,0,0,0,.6-.52v-.44a8.94,8.94,0,0,0-.94-.27c-.31-.07-.61-.13-.89-.17L310,144l-.66,0a3.77,3.77,0,0,0-1,.1,1.91,1.91,0,0,0-.62.24.91.91,0,0,0-.34.37A1,1,0,0,0,307.34,145.11Z"></path><path class="cls-4" d="M317.46,138.4h2.08v1.43a8.68,8.68,0,0,1,1.45-1.06,7,7,0,0,1,1.52-.68l.6,2.28a5.68,5.68,0,0,0-2.1.64,3.82,3.82,0,0,0-1.47,1.41v5.9h-2.08Z"></path><path class="cls-4" d="M324.26,143.33a5.41,5.41,0,0,1,.35-1.93,4.89,4.89,0,0,1,1-1.63,4.79,4.79,0,0,1,1.58-1.13,5.55,5.55,0,0,1,4.26,0,4.72,4.72,0,0,1,1.61,1.16,5.19,5.19,0,0,1,1,1.74,6.53,6.53,0,0,1,.35,2.14V144a2.66,2.66,0,0,1,0,.3h-7.82a2.42,2.42,0,0,0,.44.82,2.55,2.55,0,0,0,.74.63,3.9,3.9,0,0,0,1,.42,5.22,5.22,0,0,0,1.3.15,5.7,5.7,0,0,0,1.42-.18,9.74,9.74,0,0,0,1.35-.46l.7,1.9a8.86,8.86,0,0,1-.82.4,6.31,6.31,0,0,1-.87.28,6.8,6.8,0,0,1-.94.18c-.33,0-.68.05-1,.05a6.8,6.8,0,0,1-2.45-.4,5.22,5.22,0,0,1-1.76-1.1,4.59,4.59,0,0,1-1.06-1.64A5.61,5.61,0,0,1,324.26,143.33Zm7.95-1a2.66,2.66,0,0,0-.34-.77,2.49,2.49,0,0,0-.59-.62,2.59,2.59,0,0,0-.81-.42,3.6,3.6,0,0,0-2.09,0,3.23,3.23,0,0,0-.85.43,2.52,2.52,0,0,0-.6.62,2.73,2.73,0,0,0-.36.75Z"></path><path class="cls-4" d="M343.42,152.37h-2.07v-14h2.07v.93a4.74,4.74,0,0,1,.64-.43,6,6,0,0,1,1.69-.59,4.6,4.6,0,0,1,.91-.09,5.07,5.07,0,0,1,1.93.37,4.56,4.56,0,0,1,1.51,1,4.78,4.78,0,0,1,1,1.6,6,6,0,0,1,.35,2.08,5.83,5.83,0,0,1-.37,2.14,5,5,0,0,1-1,1.63,4.5,4.5,0,0,1-1.56,1,5.2,5.2,0,0,1-2,.36,6.65,6.65,0,0,1-.89-.06,7.35,7.35,0,0,1-.84-.19,5.08,5.08,0,0,1-.75-.28,3.73,3.73,0,0,1-.63-.36Zm0-7.17a3.6,3.6,0,0,0,.67.51,4.25,4.25,0,0,0,.71.35,3.83,3.83,0,0,0,.74.19,3.51,3.51,0,0,0,.72.07,3.38,3.38,0,0,0,1.27-.23,2.85,2.85,0,0,0,.94-.64,2.7,2.7,0,0,0,.58-.95,3.25,3.25,0,0,0,.2-1.18,3,3,0,0,0-.2-1.13,2.78,2.78,0,0,0-.57-.93,2.91,2.91,0,0,0-.9-.63,3,3,0,0,0-1.19-.23,3.44,3.44,0,0,0-.84.1,3.85,3.85,0,0,0-.81.27,4.11,4.11,0,0,0-.73.43,3.49,3.49,0,0,0-.59.56Z"></path><path class="cls-4" d="M353.44,134.37h2.08v13.95h-2.08Z"></path><path class="cls-4" d="M357.78,145.19a3.21,3.21,0,0,1,.26-1.3,2.63,2.63,0,0,1,.78-1,3.42,3.42,0,0,1,1.29-.66,6.45,6.45,0,0,1,1.8-.23,10.16,10.16,0,0,1,1.61.13,13.59,13.59,0,0,1,1.74.41,2.08,2.08,0,0,0-.24-.86,2,2,0,0,0-.56-.69,2.4,2.4,0,0,0-.87-.45,3.72,3.72,0,0,0-1.15-.16,5.32,5.32,0,0,0-.77,0,7.22,7.22,0,0,0-.87.15,9,9,0,0,0-.89.25,5,5,0,0,0-.81.36l-.63-2a8.33,8.33,0,0,1,1-.37c.36-.11.72-.21,1.1-.29s.74-.14,1.12-.19a10.11,10.11,0,0,1,1.08-.07,4.15,4.15,0,0,1,3.45,1.42,7,7,0,0,1,1.13,4.36v4.32h-2.08v-.94a4.85,4.85,0,0,1-.7.43,5.19,5.19,0,0,1-.83.36,6.73,6.73,0,0,1-1,.24,6.43,6.43,0,0,1-1.09.08,5.16,5.16,0,0,1-1.7-.25,3.37,3.37,0,0,1-1.22-.7,2.72,2.72,0,0,1-.74-1A3.32,3.32,0,0,1,357.78,145.19Zm2.18-.08a1.07,1.07,0,0,0,.11.46,1.06,1.06,0,0,0,.34.4,1.91,1.91,0,0,0,.59.28,3.15,3.15,0,0,0,.87.1,4.66,4.66,0,0,0,1.06-.12,4.6,4.6,0,0,0,.95-.31,5.52,5.52,0,0,0,.8-.44,3.42,3.42,0,0,0,.59-.52v-.44a8.3,8.3,0,0,0-.94-.27c-.31-.07-.61-.13-.89-.17l-.8-.09-.65,0a3.8,3.8,0,0,0-1,.1,2.11,2.11,0,0,0-.62.24,1,1,0,0,0-.34.37A1.13,1.13,0,0,0,360,145.11Z"></path><path class="cls-4" d="M371.33,140.27h-2V138.4h2v-3.09h2.08v3.09h2v1.87h-2v8h-2.08Z"></path><path class="cls-4" d="M378.15,140.27h-1.42V138.4h1.42a6.11,6.11,0,0,1,.24-1.79,3.43,3.43,0,0,1,.69-1.33,2.92,2.92,0,0,1,1.1-.83,3.56,3.56,0,0,1,1.46-.29,5.18,5.18,0,0,1,1.11.13,3.85,3.85,0,0,1,1,.38l-.74,2.09a1.89,1.89,0,0,0-.47-.22,2.09,2.09,0,0,0-.67-.1,1.47,1.47,0,0,0-1.15.48,2.24,2.24,0,0,0-.47,1.48h2.61v1.87h-2.61v8h-2.07Z"></path><path class="cls-4" d="M383.93,143.36a5.5,5.5,0,0,1,.36-2,4.92,4.92,0,0,1,1-1.63,4.84,4.84,0,0,1,1.62-1.1,5.36,5.36,0,0,1,2.13-.41,5.44,5.44,0,0,1,2.14.41,4.7,4.7,0,0,1,1.61,1.1,4.76,4.76,0,0,1,1,1.63,5.59,5.59,0,0,1,0,4,4.79,4.79,0,0,1-2.64,2.73,5.44,5.44,0,0,1-2.14.4,5.36,5.36,0,0,1-2.13-.4,4.76,4.76,0,0,1-2.65-2.73A5.5,5.5,0,0,1,383.93,143.36Zm2.18,0a3.28,3.28,0,0,0,.2,1.13,2.85,2.85,0,0,0,.58.94,2.94,2.94,0,0,0,.93.65,3.13,3.13,0,0,0,1.25.24,3.06,3.06,0,0,0,1.25-.24,2.87,2.87,0,0,0,.94-.65,3,3,0,0,0,.58-.94,3.28,3.28,0,0,0,.2-1.13,3.33,3.33,0,0,0-.2-1.14,3,3,0,0,0-.58-.94,2.87,2.87,0,0,0-.94-.65,3.06,3.06,0,0,0-1.25-.24,3.13,3.13,0,0,0-1.25.24,2.94,2.94,0,0,0-.93.65,2.85,2.85,0,0,0-.58.94A3.33,3.33,0,0,0,386.11,143.36Z"></path><path class="cls-4" d="M396.31,138.4h2.07v1.43a9.11,9.11,0,0,1,1.45-1.06,7.49,7.49,0,0,1,1.52-.68l.61,2.28a5.63,5.63,0,0,0-2.1.64,3.92,3.92,0,0,0-1.48,1.41v5.9h-2.07Z"></path><path class="cls-4" d="M403.56,138.4h2.07v.84a5,5,0,0,1,3-1,4.36,4.36,0,0,1,1.82.38,3.68,3.68,0,0,1,1.41,1.14,8.68,8.68,0,0,1,.9-.71,5.38,5.38,0,0,1,.88-.47,5.08,5.08,0,0,1,.9-.26,5.77,5.77,0,0,1,.94-.08,4.71,4.71,0,0,1,1.84.34,3.78,3.78,0,0,1,1.41,1,4.63,4.63,0,0,1,.91,1.64,7.4,7.4,0,0,1,.31,2.26v4.88h-2.06v-4.47a5,5,0,0,0-.2-1.46,3.17,3.17,0,0,0-.53-1.09,2.53,2.53,0,0,0-.83-.67,2.46,2.46,0,0,0-1.06-.23,2.85,2.85,0,0,0-.64.07,3,3,0,0,0-.64.22,2.74,2.74,0,0,0-.59.39,2.23,2.23,0,0,0-.47.54v6.7h-2.07v-4.47a5,5,0,0,0-.19-1.46,3.37,3.37,0,0,0-.54-1.09,2.43,2.43,0,0,0-.83-.67,2.54,2.54,0,0,0-1.07-.23,3,3,0,0,0-.72.09,3.35,3.35,0,0,0-.69.25,3.4,3.4,0,0,0-.63.38,3.65,3.65,0,0,0-.52.52v6.68h-2.07Z"></path><path class="cls-4" d="M428.19,140.27h-1.42V138.4h1.42a6.48,6.48,0,0,1,.23-1.79,3.73,3.73,0,0,1,.69-1.33,3.08,3.08,0,0,1,1.1-.83,3.62,3.62,0,0,1,1.46-.29,5.27,5.27,0,0,1,1.12.13,3.77,3.77,0,0,1,1,.38l-.73,2.09a1.89,1.89,0,0,0-.47-.22,2.09,2.09,0,0,0-.67-.1,1.51,1.51,0,0,0-1.16.48,2.29,2.29,0,0,0-.46,1.48h2.61v1.87h-2.61v8h-2.07Z"></path><path class="cls-4" d="M434,143.36a5.5,5.5,0,0,1,.36-2,4.92,4.92,0,0,1,1-1.63,4.84,4.84,0,0,1,1.62-1.1,5.36,5.36,0,0,1,2.13-.41,5.44,5.44,0,0,1,2.14.41,4.7,4.7,0,0,1,1.61,1.1,4.76,4.76,0,0,1,1,1.63,5.74,5.74,0,0,1,0,4,4.79,4.79,0,0,1-2.64,2.73,5.44,5.44,0,0,1-2.14.4,5.36,5.36,0,0,1-2.13-.4,4.76,4.76,0,0,1-2.65-2.73A5.5,5.5,0,0,1,434,143.36Zm2.18,0a3.28,3.28,0,0,0,.2,1.13,2.76,2.76,0,0,0,1.51,1.59,3.13,3.13,0,0,0,1.25.24,3.06,3.06,0,0,0,1.25-.24,2.73,2.73,0,0,0,.93-.65,2.87,2.87,0,0,0,.59-.94,3.27,3.27,0,0,0,.19-1.13,3.33,3.33,0,0,0-.19-1.14,2.87,2.87,0,0,0-.59-.94,2.73,2.73,0,0,0-.93-.65,3.06,3.06,0,0,0-1.25-.24,3.13,3.13,0,0,0-1.25.24,2.76,2.76,0,0,0-1.51,1.59A3.33,3.33,0,0,0,436.15,143.36Z"></path><path class="cls-4" d="M446.35,138.4h2.07v1.43a9.11,9.11,0,0,1,1.45-1.06,7.49,7.49,0,0,1,1.52-.68l.61,2.28a5.63,5.63,0,0,0-2.1.64,3.92,3.92,0,0,0-1.48,1.41v5.9h-2.07Z"></path><path class="cls-4" d="M18,169.15a5.41,5.41,0,0,1,.34-1.93,4.92,4.92,0,0,1,1-1.63,4.69,4.69,0,0,1,1.58-1.13A5.11,5.11,0,0,1,23,164a5.19,5.19,0,0,1,2.13.43,4.76,4.76,0,0,1,1.62,1.16,5.2,5.2,0,0,1,1,1.74,6.3,6.3,0,0,1,.35,2.15v.3a2.66,2.66,0,0,1,0,.3H20.27a2.39,2.39,0,0,0,.43.82,2.84,2.84,0,0,0,.74.63,3.9,3.9,0,0,0,1,.42,5.27,5.27,0,0,0,1.3.15,5.84,5.84,0,0,0,1.43-.18,9.74,9.74,0,0,0,1.35-.46l.7,1.9a9,9,0,0,1-.83.4,5.77,5.77,0,0,1-.86.28,7.25,7.25,0,0,1-.95.18c-.33,0-.68.05-1,.05a6.75,6.75,0,0,1-2.44-.4,5.12,5.12,0,0,1-1.76-1.1,4.62,4.62,0,0,1-1.07-1.64A5.83,5.83,0,0,1,18,169.15Zm8-1a2.68,2.68,0,0,0-.35-.77,2.32,2.32,0,0,0-.59-.62,2.59,2.59,0,0,0-.81-.42,3.29,3.29,0,0,0-1-.15,3.35,3.35,0,0,0-1.08.16,3,3,0,0,0-.84.43,2.5,2.5,0,0,0-1,1.37Z"></path><path class="cls-4" d="M32.48,169.18l-3.42-5h2.65l2.07,3,2-3h2.58l-3.21,5,3.41,5H35.89L33.75,171l-2,3.1H29.18Z"></path><path class="cls-4" d="M41.1,166.09h-2v-1.87h2v-3.09h2.08v3.09h2v1.87h-2v8H41.1Z"></path><path class="cls-4" d="M47,164.22h2.07v1.43a9.11,9.11,0,0,1,1.45-1.06,7.49,7.49,0,0,1,1.52-.68l.61,2.28a5.74,5.74,0,0,0-2.11.64,4,4,0,0,0-1.47,1.41v5.9H47Z"></path><path class="cls-4" d="M53.82,169.15a5.41,5.41,0,0,1,.34-1.93,4.92,4.92,0,0,1,1-1.63,4.69,4.69,0,0,1,1.58-1.13,5.11,5.11,0,0,1,2.12-.42,5.28,5.28,0,0,1,2.14.43,4.72,4.72,0,0,1,1.61,1.16,5.2,5.2,0,0,1,1,1.74,6.3,6.3,0,0,1,.36,2.15c0,.09,0,.19,0,.3a2.81,2.81,0,0,1,0,.3H56.13a2.39,2.39,0,0,0,.43.82,2.73,2.73,0,0,0,.75.63,3.7,3.7,0,0,0,1,.42,5.36,5.36,0,0,0,1.31.15,5.76,5.76,0,0,0,1.42-.18,9.74,9.74,0,0,0,1.35-.46l.7,1.9c-.27.15-.55.28-.82.4a6.31,6.31,0,0,1-.87.28,7,7,0,0,1-1,.18c-.33,0-.67.05-1,.05a6.75,6.75,0,0,1-2.44-.4,5.12,5.12,0,0,1-1.76-1.1,4.46,4.46,0,0,1-1.06-1.64A5.61,5.61,0,0,1,53.82,169.15Zm8-1a2.68,2.68,0,0,0-.35-.77,2.45,2.45,0,0,0-.58-.62,2.76,2.76,0,0,0-.82-.42,3.2,3.2,0,0,0-1-.15,3.29,3.29,0,0,0-1.07.16,3,3,0,0,0-.85.43,2.75,2.75,0,0,0-.61.62,2.55,2.55,0,0,0-.35.75Z"></path><path class="cls-4" d="M66.25,164.22h2.07v.84a5,5,0,0,1,3-1,4.31,4.31,0,0,1,1.81.38,3.78,3.78,0,0,1,1.42,1.14,7.67,7.67,0,0,1,.89-.71,5.82,5.82,0,0,1,.88-.47,5.08,5.08,0,0,1,.9-.26,5.77,5.77,0,0,1,.94-.08,4.71,4.71,0,0,1,1.84.34,3.78,3.78,0,0,1,1.41,1,4.63,4.63,0,0,1,.91,1.64,7.38,7.38,0,0,1,.32,2.26v4.88H80.54v-4.47a5,5,0,0,0-.19-1.46,3.37,3.37,0,0,0-.54-1.09,2.33,2.33,0,0,0-1.88-.9,2.94,2.94,0,0,0-.65.07,3,3,0,0,0-.64.22,2.81,2.81,0,0,0-.58.39,2.27,2.27,0,0,0-.48.54v6.7H73.51v-4.47a5,5,0,0,0-.19-1.46,3.37,3.37,0,0,0-.54-1.09,2.43,2.43,0,0,0-.83-.67,2.54,2.54,0,0,0-1.07-.23,3,3,0,0,0-.72.09,3.35,3.35,0,0,0-.69.25,3,3,0,0,0-.62.38,3.26,3.26,0,0,0-.53.52v6.68H66.25Z"></path><path class="cls-4" d="M84.82,169.15a5.41,5.41,0,0,1,.34-1.93,4.92,4.92,0,0,1,1-1.63,4.79,4.79,0,0,1,1.58-1.13,5.12,5.12,0,0,1,2.13-.42,5.23,5.23,0,0,1,2.13.43,4.72,4.72,0,0,1,1.61,1.16,5.2,5.2,0,0,1,1,1.74,6.3,6.3,0,0,1,.36,2.15v.3c0,.11,0,.21,0,.3H87.13a2.39,2.39,0,0,0,.43.82,2.73,2.73,0,0,0,.75.63,3.83,3.83,0,0,0,1,.42,5.36,5.36,0,0,0,1.31.15,5.76,5.76,0,0,0,1.42-.18,9.74,9.74,0,0,0,1.35-.46l.7,1.9a8.86,8.86,0,0,1-.82.4,6.31,6.31,0,0,1-.87.28,7,7,0,0,1-1,.18c-.33,0-.67.05-1,.05a6.75,6.75,0,0,1-2.44-.4,5.12,5.12,0,0,1-1.76-1.1,4.46,4.46,0,0,1-1.06-1.64A5.61,5.61,0,0,1,84.82,169.15Zm8-1a2.68,2.68,0,0,0-.35-.77,2.28,2.28,0,0,0-.58-.62,2.76,2.76,0,0,0-.82-.42,3.2,3.2,0,0,0-1-.15,3.29,3.29,0,0,0-1.07.16,3.08,3.08,0,0,0-.85.43,3,3,0,0,0-.61.62,2.84,2.84,0,0,0-.35.75Z"></path><path class="cls-4" d="M101.32,169.22a6,6,0,0,1,.37-2.14,4.87,4.87,0,0,1,1-1.63,4.46,4.46,0,0,1,1.55-1,5,5,0,0,1,2-.37,6.54,6.54,0,0,1,.89.07,7.35,7.35,0,0,1,.84.19,4.57,4.57,0,0,1,.76.28,5.07,5.07,0,0,1,.62.35v-4.74h2.08v13.95h-2.08v-.93a3.55,3.55,0,0,1-.64.42,4.86,4.86,0,0,1-.8.36,6.33,6.33,0,0,1-.88.24,4.73,4.73,0,0,1-.91.08,4.85,4.85,0,0,1-1.93-.37,4.21,4.21,0,0,1-1.51-1,4.67,4.67,0,0,1-1-1.61A5.69,5.69,0,0,1,101.32,169.22Zm2.18,0a3.28,3.28,0,0,0,.2,1.13,2.78,2.78,0,0,0,.57.93,3,3,0,0,0,.91.63,3,3,0,0,0,1.18.23,3.47,3.47,0,0,0,.85-.1,4.1,4.1,0,0,0,1.53-.7,3.16,3.16,0,0,0,.59-.56v-3.44a3.89,3.89,0,0,0-.66-.51,4,4,0,0,0-.72-.35,4.64,4.64,0,0,0-.73-.2,4.56,4.56,0,0,0-.72-.06,3.34,3.34,0,0,0-1.27.23,2.75,2.75,0,0,0-.94.64,2.63,2.63,0,0,0-.59.95A3.48,3.48,0,0,0,103.5,169.22Z"></path><path class="cls-4" d="M113.55,171a3.24,3.24,0,0,1,.26-1.3,2.63,2.63,0,0,1,.78-1,3.42,3.42,0,0,1,1.29-.66,6.5,6.5,0,0,1,1.8-.23,10.16,10.16,0,0,1,1.61.13,12.17,12.17,0,0,1,1.74.42,2.09,2.09,0,0,0-.24-.87,2,2,0,0,0-.56-.69,2.4,2.4,0,0,0-.87-.45,3.72,3.72,0,0,0-1.15-.16,5.4,5.4,0,0,0-.77.05,7.22,7.22,0,0,0-.87.15c-.3.07-.59.15-.89.25a5,5,0,0,0-.81.36l-.63-2a9,9,0,0,1,1-.37c.36-.11.73-.21,1.1-.29s.75-.14,1.12-.19a10.3,10.3,0,0,1,1.09-.07,4.14,4.14,0,0,1,3.44,1.42,7,7,0,0,1,1.13,4.36v4.32h-2.07v-.93a6,6,0,0,1-.71.42,4.83,4.83,0,0,1-.83.36,6.73,6.73,0,0,1-1,.24,6.35,6.35,0,0,1-1.09.08,5.2,5.2,0,0,1-1.7-.25,3.46,3.46,0,0,1-1.22-.7,2.83,2.83,0,0,1-.74-1A3.32,3.32,0,0,1,113.55,171Zm2.19-.08a1,1,0,0,0,.1.46,1.06,1.06,0,0,0,.34.4,1.91,1.91,0,0,0,.59.28,3.15,3.15,0,0,0,.87.1,5.11,5.11,0,0,0,2-.43,4.35,4.35,0,0,0,.8-.44,3.51,3.51,0,0,0,.6-.52v-.44a9.1,9.1,0,0,0-1-.27c-.31-.07-.6-.13-.89-.17l-.79-.09-.66,0a3.8,3.8,0,0,0-1,.1,2.11,2.11,0,0,0-.62.24,1,1,0,0,0-.34.37A1.12,1.12,0,0,0,115.74,170.93Z"></path><path class="cls-4" d="M127.1,166.09h-2v-1.87h2v-3.09h2.08v3.09h2v1.87h-2v8H127.1Z"></path><path class="cls-4" d="M132.62,171a3.24,3.24,0,0,1,.26-1.3,2.84,2.84,0,0,1,.78-1A3.57,3.57,0,0,1,135,168a6.53,6.53,0,0,1,1.81-.23,10,10,0,0,1,1.6.13,11.56,11.56,0,0,1,1.74.42,2.24,2.24,0,0,0-.23-.87,2.11,2.11,0,0,0-.57-.69,2.4,2.4,0,0,0-.87-.45,3.67,3.67,0,0,0-1.15-.16,5.4,5.4,0,0,0-.77.05,7.22,7.22,0,0,0-.87.15,8.84,8.84,0,0,0-.88.25,5.08,5.08,0,0,0-.82.36l-.63-2a8.5,8.5,0,0,1,1-.37c.35-.11.72-.21,1.09-.29s.75-.14,1.12-.19a10.47,10.47,0,0,1,1.09-.07,4.14,4.14,0,0,1,3.44,1.42,6.91,6.91,0,0,1,1.13,4.36v4.32h-2.07v-.93a6,6,0,0,1-.71.42,4.83,4.83,0,0,1-.83.36,6.12,6.12,0,0,1-1,.24,6.28,6.28,0,0,1-1.09.08,5.2,5.2,0,0,1-1.7-.25,3.55,3.55,0,0,1-1.22-.7,2.83,2.83,0,0,1-.74-1A3.51,3.51,0,0,1,132.62,171Zm2.19-.08a1,1,0,0,0,.1.46,1.16,1.16,0,0,0,.34.4,1.91,1.91,0,0,0,.59.28,3.15,3.15,0,0,0,.87.1,4.59,4.59,0,0,0,1.06-.12,4.9,4.9,0,0,0,1-.31,4.61,4.61,0,0,0,.79-.44,3.51,3.51,0,0,0,.6-.52v-.44a8.94,8.94,0,0,0-.94-.27c-.31-.07-.61-.13-.89-.17l-.8-.09-.66,0a3.72,3.72,0,0,0-1,.1,2.07,2.07,0,0,0-.63.24.88.88,0,0,0-.33.37A1,1,0,0,0,134.81,170.93Z"></path><path class="cls-4" d="M149.3,171a3.24,3.24,0,0,1,.26-1.3,2.63,2.63,0,0,1,.78-1,3.42,3.42,0,0,1,1.29-.66,6.5,6.5,0,0,1,1.8-.23,10.16,10.16,0,0,1,1.61.13,12.17,12.17,0,0,1,1.74.42,2.09,2.09,0,0,0-.24-.87,2,2,0,0,0-.56-.69,2.4,2.4,0,0,0-.87-.45,3.72,3.72,0,0,0-1.15-.16,5.4,5.4,0,0,0-.77.05,7.22,7.22,0,0,0-.87.15c-.3.07-.59.15-.89.25a5,5,0,0,0-.81.36l-.63-2a9,9,0,0,1,1-.37c.36-.11.73-.21,1.1-.29s.75-.14,1.12-.19a10.3,10.3,0,0,1,1.09-.07,4.14,4.14,0,0,1,3.44,1.42,7,7,0,0,1,1.13,4.36v4.32H156.8v-.93a6,6,0,0,1-.71.42,4.83,4.83,0,0,1-.83.36,6.73,6.73,0,0,1-1,.24,6.35,6.35,0,0,1-1.09.08,5.2,5.2,0,0,1-1.7-.25,3.46,3.46,0,0,1-1.22-.7,2.83,2.83,0,0,1-.74-1A3.32,3.32,0,0,1,149.3,171Zm2.19-.08a1,1,0,0,0,.1.46,1.06,1.06,0,0,0,.34.4,1.91,1.91,0,0,0,.59.28,3.15,3.15,0,0,0,.87.1,5.11,5.11,0,0,0,2-.43,4.35,4.35,0,0,0,.8-.44,3.51,3.51,0,0,0,.6-.52v-.44a9.1,9.1,0,0,0-1-.27c-.31-.07-.6-.13-.89-.17l-.79-.09-.66,0a3.8,3.8,0,0,0-1,.1,2.11,2.11,0,0,0-.62.24,1,1,0,0,0-.34.37A1.12,1.12,0,0,0,151.49,170.93Z"></path><path class="cls-4" d="M161.11,169.2a6.13,6.13,0,0,1,.33-2,4.6,4.6,0,0,1,1-1.64,4.3,4.3,0,0,1,1.57-1.09,5.36,5.36,0,0,1,2.11-.4,7.42,7.42,0,0,1,1.05.08,7.84,7.84,0,0,1,1,.21,9.63,9.63,0,0,1,.91.33,4.36,4.36,0,0,1,.75.42l-1,1.87a6,6,0,0,0-1.29-.55,4.26,4.26,0,0,0-1.23-.18,3.47,3.47,0,0,0-1.28.22,2.67,2.67,0,0,0-1,.63,2.59,2.59,0,0,0-.61.94,3.44,3.44,0,0,0-.2,1.18,3.06,3.06,0,0,0,.22,1.18,2.71,2.71,0,0,0,.62.93,3,3,0,0,0,1,.62,3.64,3.64,0,0,0,1.27.22,4.1,4.1,0,0,0,1.45-.26,5.41,5.41,0,0,0,1.27-.7l1,1.87a6.37,6.37,0,0,1-.8.5,5.54,5.54,0,0,1-.93.4,6.33,6.33,0,0,1-2.16.36,5.45,5.45,0,0,1-2.12-.38,4.45,4.45,0,0,1-2.59-2.69A5.82,5.82,0,0,1,161.11,169.2Z"></path><path class="cls-4" d="M172.3,164.22h2.07v1.43a9.11,9.11,0,0,1,1.45-1.06,7.25,7.25,0,0,1,1.52-.68l.61,2.28a5.74,5.74,0,0,0-2.11.64,4,4,0,0,0-1.47,1.41v5.9H172.3Z"></path><path class="cls-4" d="M179,169.18a5.5,5.5,0,0,1,.36-2,4.92,4.92,0,0,1,1-1.63,4.84,4.84,0,0,1,1.62-1.1,5.36,5.36,0,0,1,2.13-.41,5.44,5.44,0,0,1,2.14.41,4.7,4.7,0,0,1,1.61,1.1,4.76,4.76,0,0,1,1,1.63,5.74,5.74,0,0,1,0,4,4.79,4.79,0,0,1-2.64,2.73,5.44,5.44,0,0,1-2.14.4,5.36,5.36,0,0,1-2.13-.4,4.76,4.76,0,0,1-2.65-2.73A5.5,5.5,0,0,1,179,169.18Zm2.18,0a3.28,3.28,0,0,0,.2,1.13,2.75,2.75,0,0,0,.58.94,2.94,2.94,0,0,0,.93.65,3.13,3.13,0,0,0,1.25.24,3.06,3.06,0,0,0,1.25-.24,2.73,2.73,0,0,0,.93-.65,2.77,2.77,0,0,0,.59-.94,3.28,3.28,0,0,0,.2-1.13,3.33,3.33,0,0,0-.2-1.14,2.87,2.87,0,0,0-.59-.94,2.73,2.73,0,0,0-.93-.65,3.06,3.06,0,0,0-1.25-.24,3.13,3.13,0,0,0-1.25.24,2.94,2.94,0,0,0-.93.65,2.85,2.85,0,0,0-.58.94A3.33,3.33,0,0,0,181.17,169.18Z"></path><path class="cls-4" d="M191.7,171.1a5.87,5.87,0,0,0,1.85.89,7.53,7.53,0,0,0,2.06.28,4.9,4.9,0,0,0,1.19-.12,2.21,2.21,0,0,0,.77-.3,1.06,1.06,0,0,0,.4-.42,1,1,0,0,0,.12-.48.82.82,0,0,0-.25-.6,1.17,1.17,0,0,0-.85-.25,4.27,4.27,0,0,0-.59,0l-.66.09-.72.08a6.33,6.33,0,0,1-.76.05,4.26,4.26,0,0,1-1.43-.22,2.54,2.54,0,0,1-1-.6,2.2,2.2,0,0,1-.54-.89,3.7,3.7,0,0,1-.17-1.12,3.36,3.36,0,0,1,.29-1.39,3.27,3.27,0,0,1,.84-1.11,4.21,4.21,0,0,1,1.32-.73,5.56,5.56,0,0,1,1.73-.26,9.56,9.56,0,0,1,1,.07c.36,0,.72.12,1.07.19s.68.17,1,.28a6.3,6.3,0,0,1,.85.33l-.65,1.93a11.06,11.06,0,0,0-1.58-.56,6.72,6.72,0,0,0-1.62-.2,3.89,3.89,0,0,0-1,.1,2,2,0,0,0-.66.28,1.23,1.23,0,0,0-.37.39,1.12,1.12,0,0,0-.11.47.79.79,0,0,0,.06.32.58.58,0,0,0,.19.25,1,1,0,0,0,.36.16,2.16,2.16,0,0,0,.54,0,4.64,4.64,0,0,0,.63,0l.68-.09.74-.09c.26,0,.52,0,.78,0a3.65,3.65,0,0,1,1.3.21,2.47,2.47,0,0,1,.92.59,2.34,2.34,0,0,1,.55.89,3.37,3.37,0,0,1,.18,1.12,3.48,3.48,0,0,1-.3,1.45,3.18,3.18,0,0,1-.9,1.17,4.31,4.31,0,0,1-1.48.77,7,7,0,0,1-2.05.27,9,9,0,0,1-1.38-.1,9.67,9.67,0,0,1-1.26-.29,9,9,0,0,1-1.14-.42,8.61,8.61,0,0,1-1-.52Z"></path><path class="cls-4" d="M202.46,171.1a6,6,0,0,0,1.85.89,7.6,7.6,0,0,0,2.07.28,5,5,0,0,0,1.19-.12,2.15,2.15,0,0,0,.76-.3,1,1,0,0,0,.53-.9.83.83,0,0,0-.26-.6,1.16,1.16,0,0,0-.84-.25,4.18,4.18,0,0,0-.59,0l-.66.09-.72.08a6.47,6.47,0,0,1-.76.05,4.26,4.26,0,0,1-1.43-.22,2.67,2.67,0,0,1-1-.6,2.2,2.2,0,0,1-.54-.89,3.7,3.7,0,0,1-.17-1.12,3.21,3.21,0,0,1,.3-1.39,3.14,3.14,0,0,1,.84-1.11,4,4,0,0,1,1.32-.73,5.51,5.51,0,0,1,1.73-.26,9.73,9.73,0,0,1,1,.07c.36,0,.71.12,1.06.19a9.92,9.92,0,0,1,1,.28,6,6,0,0,1,.86.33l-.65,1.93a11.51,11.51,0,0,0-1.58-.56,6.78,6.78,0,0,0-1.62-.2,4,4,0,0,0-1,.1,1.87,1.87,0,0,0-.65.28,1.23,1.23,0,0,0-.37.39,1,1,0,0,0-.12.47.79.79,0,0,0,.06.32.6.6,0,0,0,.2.25,1,1,0,0,0,.36.16,2.06,2.06,0,0,0,.54,0,4.59,4.59,0,0,0,.62,0l.69-.09.74-.09c.25,0,.51,0,.78,0a3.69,3.69,0,0,1,1.3.21,2.47,2.47,0,0,1,.92.59,2.45,2.45,0,0,1,.54.89,3.14,3.14,0,0,1,.19,1.12,3.48,3.48,0,0,1-.3,1.45,3.18,3.18,0,0,1-.9,1.17,4.41,4.41,0,0,1-1.48.77,7.07,7.07,0,0,1-2.05.27,8.79,8.79,0,0,1-1.38-.1,9.82,9.82,0,0,1-1.27-.29,8.83,8.83,0,0,1-1.13-.42,8.61,8.61,0,0,1-1-.52Z"></path><path class="cls-4" d="M218.91,166.09h-2v-1.87h2v-3.09H221v3.09h2v1.87h-2v8h-2.07Z"></path><path class="cls-4" d="M224.82,160.2h2.08V165a5.23,5.23,0,0,1,1.45-.68A5.47,5.47,0,0,1,230,164a4.51,4.51,0,0,1,1.84.36,3.88,3.88,0,0,1,1.39,1,5,5,0,0,1,.87,1.65,7.3,7.3,0,0,1,.3,2.17v4.88h-2.06v-4.78a4.37,4.37,0,0,0-.19-1.29,2.79,2.79,0,0,0-.56-1,2.46,2.46,0,0,0-.88-.65,2.79,2.79,0,0,0-1.18-.23,3.58,3.58,0,0,0-1.47.3,4.49,4.49,0,0,0-1.19.76v6.89h-2.08Z"></path><path class="cls-4" d="M236.36,169.15a5.41,5.41,0,0,1,.34-1.93,4.92,4.92,0,0,1,1-1.63,4.69,4.69,0,0,1,1.58-1.13,5.11,5.11,0,0,1,2.12-.42,5.28,5.28,0,0,1,2.14.43,4.72,4.72,0,0,1,1.61,1.16,5.2,5.2,0,0,1,1,1.74,6.3,6.3,0,0,1,.36,2.15c0,.09,0,.19,0,.3s0,.21,0,.3h-7.82a2.39,2.39,0,0,0,.43.82,2.73,2.73,0,0,0,.75.63,3.7,3.7,0,0,0,1,.42,5.27,5.27,0,0,0,1.3.15,5.78,5.78,0,0,0,1.43-.18,9.74,9.74,0,0,0,1.35-.46l.7,1.9c-.27.15-.55.28-.82.4a6.31,6.31,0,0,1-.87.28,7,7,0,0,1-.95.18c-.33,0-.67.05-1,.05a6.75,6.75,0,0,1-2.44-.4,5.12,5.12,0,0,1-1.76-1.1,4.62,4.62,0,0,1-1.07-1.64A5.83,5.83,0,0,1,236.36,169.15Zm7.95-1a2.68,2.68,0,0,0-.35-.77,2.45,2.45,0,0,0-.58-.62,2.76,2.76,0,0,0-.82-.42,3.2,3.2,0,0,0-1-.15,3.29,3.29,0,0,0-1.07.16,3,3,0,0,0-.85.43,2.75,2.75,0,0,0-.61.62,2.55,2.55,0,0,0-.35.75Z"></path><path class="cls-4" d="M253,169.2a6.13,6.13,0,0,1,.33-2,4.6,4.6,0,0,1,1-1.64,4.3,4.3,0,0,1,1.57-1.09A5.36,5.36,0,0,1,258,164a7.42,7.42,0,0,1,1.05.08,7.84,7.84,0,0,1,1,.21,9.63,9.63,0,0,1,.91.33,4.36,4.36,0,0,1,.75.42l-1,1.87a6,6,0,0,0-1.29-.55,4.26,4.26,0,0,0-1.23-.18,3.47,3.47,0,0,0-1.28.22,2.67,2.67,0,0,0-1,.63,2.59,2.59,0,0,0-.61.94,3.44,3.44,0,0,0-.2,1.18,3.06,3.06,0,0,0,.22,1.18,2.71,2.71,0,0,0,.62.93,3,3,0,0,0,1,.62,3.64,3.64,0,0,0,1.27.22,4.1,4.1,0,0,0,1.45-.26,5.41,5.41,0,0,0,1.27-.7l1,1.87a6.37,6.37,0,0,1-.8.5,5.54,5.54,0,0,1-.93.4,6.33,6.33,0,0,1-2.16.36,5.54,5.54,0,0,1-2.13-.38,4.47,4.47,0,0,1-2.58-2.69A5.82,5.82,0,0,1,253,169.2Z"></path><path class="cls-4" d="M263.69,169.18a5.5,5.5,0,0,1,.36-2,4.76,4.76,0,0,1,1-1.63,4.65,4.65,0,0,1,1.62-1.1,5.74,5.74,0,0,1,4.26,0,4.84,4.84,0,0,1,1.62,1.1,4.76,4.76,0,0,1,1,1.63,5.74,5.74,0,0,1,0,4,4.86,4.86,0,0,1-1,1.63,5,5,0,0,1-1.62,1.1,5.87,5.87,0,0,1-4.26,0,4.79,4.79,0,0,1-1.62-1.1,4.86,4.86,0,0,1-1-1.63A5.5,5.5,0,0,1,263.69,169.18Zm2.18,0a3.06,3.06,0,0,0,.2,1.13,2.61,2.61,0,0,0,.58.94,2.73,2.73,0,0,0,.93.65,3.38,3.38,0,0,0,2.5,0,2.73,2.73,0,0,0,.93-.65,2.61,2.61,0,0,0,.58-.94,3.06,3.06,0,0,0,.2-1.13,3.11,3.11,0,0,0-.2-1.14,2.69,2.69,0,0,0-.58-.94,2.73,2.73,0,0,0-.93-.65,3.38,3.38,0,0,0-2.5,0,2.73,2.73,0,0,0-.93.65,2.69,2.69,0,0,0-.58.94A3.11,3.11,0,0,0,265.87,169.18Z"></path><path class="cls-4" d="M276.12,164.22h2.07v.84a5,5,0,0,1,3-1,4.31,4.31,0,0,1,1.81.38,3.78,3.78,0,0,1,1.42,1.14,7.67,7.67,0,0,1,.89-.71,5.46,5.46,0,0,1,.89-.47,4.76,4.76,0,0,1,.89-.26A5.86,5.86,0,0,1,288,164a4.71,4.71,0,0,1,1.84.34,3.78,3.78,0,0,1,1.41,1,4.48,4.48,0,0,1,.91,1.64,7.38,7.38,0,0,1,.32,2.26v4.88h-2.07v-4.47a5,5,0,0,0-.19-1.46,3.37,3.37,0,0,0-.54-1.09,2.33,2.33,0,0,0-1.88-.9,2.94,2.94,0,0,0-.65.07,3,3,0,0,0-.64.22,2.81,2.81,0,0,0-.58.39,2.27,2.27,0,0,0-.48.54v6.7h-2.07v-4.47a5,5,0,0,0-.19-1.46,3.37,3.37,0,0,0-.54-1.09,2.43,2.43,0,0,0-.83-.67,2.54,2.54,0,0,0-1.07-.23,3,3,0,0,0-.72.09,3.35,3.35,0,0,0-.69.25,3,3,0,0,0-.62.38,3.26,3.26,0,0,0-.53.52v6.68h-2.07Z"></path><path class="cls-4" d="M297.1,178.19H295v-14h2.07v.93a4.74,4.74,0,0,1,.64-.43,6.44,6.44,0,0,1,.8-.35,6.74,6.74,0,0,1,.88-.24,4.76,4.76,0,0,1,.91-.09,5.08,5.08,0,0,1,1.94.37,4.42,4.42,0,0,1,1.5,1.05,4.75,4.75,0,0,1,1,1.61,5.91,5.91,0,0,1,.35,2.07,5.83,5.83,0,0,1-.37,2.14,4.87,4.87,0,0,1-1,1.63,4.37,4.37,0,0,1-1.55,1,5.2,5.2,0,0,1-2,.36,6.54,6.54,0,0,1-.89-.06,7.35,7.35,0,0,1-.84-.19,5.08,5.08,0,0,1-.75-.28,3.73,3.73,0,0,1-.63-.36Zm0-7.17a3.89,3.89,0,0,0,.66.51,4.76,4.76,0,0,0,.72.35,3.93,3.93,0,0,0,.73.19,3.68,3.68,0,0,0,.73.07,3.38,3.38,0,0,0,1.27-.23,2.85,2.85,0,0,0,.94-.64,2.7,2.7,0,0,0,.58-1,3.25,3.25,0,0,0,.2-1.18,3,3,0,0,0-.2-1.13,2.78,2.78,0,0,0-.57-.93,2.91,2.91,0,0,0-.9-.63,3,3,0,0,0-1.19-.23,3.44,3.44,0,0,0-.84.1,3.85,3.85,0,0,0-.81.27,4.11,4.11,0,0,0-.73.43,3.15,3.15,0,0,0-.59.56Z"></path><path class="cls-4" d="M307.07,164.21h2.06v4.84a5.48,5.48,0,0,0,.13,1.26,2.46,2.46,0,0,0,.43,1,2,2,0,0,0,.81.63,3.14,3.14,0,0,0,1.27.22,3,3,0,0,0,.72-.09,3.25,3.25,0,0,0,.7-.26,3.33,3.33,0,0,0,.63-.39,2.63,2.63,0,0,0,.5-.5v-6.68h2.08v9.93h-2.08v-.85a5.54,5.54,0,0,1-1.53.78,4.91,4.91,0,0,1-1.47.24,5.15,5.15,0,0,1-1.94-.33,3.23,3.23,0,0,1-1.32-1,3.86,3.86,0,0,1-.76-1.53,8.77,8.77,0,0,1-.23-2.08Z"></path><path class="cls-4" d="M320.28,166.09h-2v-1.87h2v-3.09h2.07v3.09h2v1.87h-2v8h-2.07Z"></path><path class="cls-4" d="M325.8,169.15a5.41,5.41,0,0,1,.34-1.93,4.92,4.92,0,0,1,1-1.63,4.69,4.69,0,0,1,1.58-1.13,5.11,5.11,0,0,1,2.12-.42,5.28,5.28,0,0,1,2.14.43,4.81,4.81,0,0,1,1.61,1.16,5.2,5.2,0,0,1,1,1.74,6.3,6.3,0,0,1,.36,2.15c0,.09,0,.19,0,.3a2.66,2.66,0,0,1,0,.3h-7.81a2.39,2.39,0,0,0,.43.82,2.84,2.84,0,0,0,.74.63,3.9,3.9,0,0,0,1,.42,5.27,5.27,0,0,0,1.3.15,5.84,5.84,0,0,0,1.43-.18,9.74,9.74,0,0,0,1.35-.46l.7,1.9a9,9,0,0,1-.83.4,5.77,5.77,0,0,1-.86.28,7,7,0,0,1-1,.18c-.33,0-.68.05-1,.05a6.75,6.75,0,0,1-2.44-.4,5.12,5.12,0,0,1-1.76-1.1,4.62,4.62,0,0,1-1.07-1.64A5.83,5.83,0,0,1,325.8,169.15Zm7.95-1a2.68,2.68,0,0,0-.35-.77,2.32,2.32,0,0,0-.59-.62,2.59,2.59,0,0,0-.81-.42,3.24,3.24,0,0,0-1-.15,3.35,3.35,0,0,0-1.08.16,3,3,0,0,0-.84.43,2.5,2.5,0,0,0-1,1.37Z"></path><path class="cls-4" d="M342.44,169.2a6.13,6.13,0,0,1,.33-2,4.73,4.73,0,0,1,1-1.64,4.39,4.39,0,0,1,1.57-1.09,5.45,5.45,0,0,1,2.12-.4,7.42,7.42,0,0,1,1.05.08,8.21,8.21,0,0,1,1,.21,9.63,9.63,0,0,1,.91.33,3.9,3.9,0,0,1,.74.42l-.95,1.87a6.23,6.23,0,0,0-1.29-.55,4.26,4.26,0,0,0-1.23-.18,3.44,3.44,0,0,0-1.28.22,2.67,2.67,0,0,0-1,.63,2.59,2.59,0,0,0-.61.94,3.44,3.44,0,0,0-.2,1.18,3.06,3.06,0,0,0,.22,1.18,2.58,2.58,0,0,0,.62.93,2.93,2.93,0,0,0,1,.62,3.74,3.74,0,0,0,1.28.22,4.14,4.14,0,0,0,1.45-.26,5.62,5.62,0,0,0,1.27-.7l1,1.87a6.5,6.5,0,0,1-.81.5,5.44,5.44,0,0,1-.92.4,6.33,6.33,0,0,1-2.16.36,5.54,5.54,0,0,1-2.13-.38,4.47,4.47,0,0,1-2.58-2.69A5.6,5.6,0,0,1,342.44,169.2Z"></path><path class="cls-4" d="M353.13,169.18a5.5,5.5,0,0,1,.36-2,4.76,4.76,0,0,1,1-1.63,4.65,4.65,0,0,1,1.62-1.1,5.74,5.74,0,0,1,4.26,0,4.84,4.84,0,0,1,1.62,1.1,4.76,4.76,0,0,1,1,1.63,5.74,5.74,0,0,1,0,4,4.86,4.86,0,0,1-1,1.63,5,5,0,0,1-1.62,1.1,5.87,5.87,0,0,1-4.26,0,4.79,4.79,0,0,1-1.62-1.1,4.86,4.86,0,0,1-1-1.63A5.5,5.5,0,0,1,353.13,169.18Zm2.18,0a3.06,3.06,0,0,0,.2,1.13,2.61,2.61,0,0,0,.58.94,2.73,2.73,0,0,0,.93.65,3.38,3.38,0,0,0,2.5,0,2.76,2.76,0,0,0,1.51-1.59,3.06,3.06,0,0,0,.2-1.13A3.11,3.11,0,0,0,361,168a2.85,2.85,0,0,0-.58-.94,2.73,2.73,0,0,0-.93-.65,3.38,3.38,0,0,0-2.5,0,2.73,2.73,0,0,0-.93.65,2.69,2.69,0,0,0-.58.94A3.11,3.11,0,0,0,355.31,169.18Z"></path><path class="cls-4" d="M365.5,164.22h2.08v.84a5.55,5.55,0,0,1,1.58-.79,5.11,5.11,0,0,1,1.47-.23,4.37,4.37,0,0,1,1.75.34,3.91,3.91,0,0,1,1.4,1,4.65,4.65,0,0,1,.92,1.64,7.08,7.08,0,0,1,.33,2.26v4.88H373v-4.47a5,5,0,0,0-.19-1.46,3.19,3.19,0,0,0-.55-1.09,2.43,2.43,0,0,0-.88-.67,2.84,2.84,0,0,0-1.15-.23,3.4,3.4,0,0,0-.69.08,4,4,0,0,0-.69.24,4.4,4.4,0,0,0-.66.39,3.17,3.17,0,0,0-.57.53v6.68H365.5Z"></path><path class="cls-4" d="M378.82,166.09h-2v-1.87h2v-3.09h2.07v3.09h2v1.87h-2v8h-2.07Z"></path><path class="cls-4" d="M385.82,162.87a1.38,1.38,0,0,1-.55-.11,1.28,1.28,0,0,1-.43-.28,1.51,1.51,0,0,1-.27-.42,1.44,1.44,0,0,1-.09-.51,1.46,1.46,0,0,1,.09-.52,1.51,1.51,0,0,1,.27-.42,1.45,1.45,0,0,1,.43-.28,1.38,1.38,0,0,1,.55-.1,1.48,1.48,0,0,1,.57.1,1.54,1.54,0,0,1,.42.28,1.17,1.17,0,0,1,.27.42,1.46,1.46,0,0,1,.09.52,1.44,1.44,0,0,1-.09.51,1.17,1.17,0,0,1-.27.42,1.34,1.34,0,0,1-.42.28A1.48,1.48,0,0,1,385.82,162.87Zm-1,1.35h2.07v9.92h-2.07Z"></path><path class="cls-4" d="M389.51,164.22h2.08v.84a5.69,5.69,0,0,1,1.58-.79,5.11,5.11,0,0,1,1.47-.23,4.37,4.37,0,0,1,1.75.34,3.91,3.91,0,0,1,1.4,1,4.65,4.65,0,0,1,.92,1.64,7.08,7.08,0,0,1,.33,2.26v4.88H397v-4.47a5,5,0,0,0-.19-1.46,3.19,3.19,0,0,0-.55-1.09,2.43,2.43,0,0,0-.88-.67,2.81,2.81,0,0,0-1.15-.23,3.4,3.4,0,0,0-.69.08,4,4,0,0,0-.69.24,4.4,4.4,0,0,0-.66.39,3.17,3.17,0,0,0-.57.53v6.68h-2.08Z"></path><path class="cls-4" d="M401.58,164.21h2.07v4.84a6.13,6.13,0,0,0,.12,1.26,2.47,2.47,0,0,0,.44,1,2,2,0,0,0,.81.63,3.42,3.42,0,0,0,2,.13,3.46,3.46,0,0,0,.7-.26,3.68,3.68,0,0,0,.63-.39,3,3,0,0,0,.5-.5v-6.68h2.07v9.93h-2.07v-.85a5.54,5.54,0,0,1-1.53.78,5,5,0,0,1-1.47.24,5.11,5.11,0,0,1-1.94-.33,3.33,3.33,0,0,1-1.33-1,4,4,0,0,1-.75-1.53,8.26,8.26,0,0,1-.24-2.08Z"></path><path class="cls-4" d="M413.55,164.21h2.06v4.84a5.48,5.48,0,0,0,.13,1.26,2.46,2.46,0,0,0,.43,1,2,2,0,0,0,.81.63,3.14,3.14,0,0,0,1.27.22A3,3,0,0,0,419,172a3.25,3.25,0,0,0,.7-.26,3.33,3.33,0,0,0,.63-.39,2.63,2.63,0,0,0,.5-.5v-6.68h2.08v9.93H420.8v-.85a5.54,5.54,0,0,1-1.53.78,5,5,0,0,1-1.47.24,5.15,5.15,0,0,1-1.94-.33,3.23,3.23,0,0,1-1.32-1,3.86,3.86,0,0,1-.76-1.53,8.77,8.77,0,0,1-.23-2.08Z"></path><path class="cls-4" d="M425.57,164.22h2.07v.84a4.82,4.82,0,0,1,1.52-.79,4.91,4.91,0,0,1,1.44-.23,4.39,4.39,0,0,1,1.82.38,3.68,3.68,0,0,1,1.41,1.14,7,7,0,0,1,.9-.71,5.38,5.38,0,0,1,.88-.47,4.64,4.64,0,0,1,.9-.26,5.64,5.64,0,0,1,.93-.08,4.76,4.76,0,0,1,1.85.34,3.78,3.78,0,0,1,1.41,1,4.47,4.47,0,0,1,.9,1.64,7.38,7.38,0,0,1,.32,2.26v4.88h-2.07v-4.47a5,5,0,0,0-.19-1.46,3.37,3.37,0,0,0-.54-1.09,2.4,2.4,0,0,0-.82-.67,2.49,2.49,0,0,0-1.06-.23,2.81,2.81,0,0,0-1.87.68,2.23,2.23,0,0,0-.47.54v6.7h-2.07v-4.47a5.38,5.38,0,0,0-.19-1.46,3.37,3.37,0,0,0-.54-1.09,2.38,2.38,0,0,0-.84-.67,2.49,2.49,0,0,0-1.06-.23,3,3,0,0,0-.72.09,3.66,3.66,0,0,0-.7.25,3,3,0,0,0-.62.38,3.2,3.2,0,0,0-.52.52v6.68h-2.07Z"></path><rect class="cls-5" x="22" y="50.78" width="32.55" height="11.28"></rect><path class="cls-5" d="M326.19,74.9H313.42L290.65,29.06l-17.3,35.23h6.81l5.67,10.61h-30.2l35-70.56Z"></path><circle class="cls-1" cx="300.2" cy="88.61" r="2.63"></circle><circle class="cls-6" cx="300.2" cy="96.24" r="2.63"></circle><rect class="cls-6" x="285.98" y="66.95" width="28.06" height="4.99" rx="1.74" transform="translate(230.57 369.45) rotate(-90)"></rect><circle class="cls-1" cx="291.27" cy="99.69" r="2.63"></circle><circle class="cls-2" cx="291.27" cy="107.14" r="2.63"></circle><path class="cls-2" d="M293.77,82V93a2.34,2.34,0,0,1-2.49,2.14h0a2.34,2.34,0,0,1-2.5-2.14V82a2.34,2.34,0,0,1,2.5-2.14h0A2.34,2.34,0,0,1,293.77,82Z"></path><rect class="cls-6" x="275.71" y="59.52" width="31.12" height="4.99" rx="1.74" transform="translate(229.26 353.28) rotate(-90)"></rect></svg> 