<?xml version="1.0" encoding="UTF-8"?>
<svg id="Layer_1" data-name="Layer 1" xmlns="http://www.w3.org/2000/svg" viewBox="0 0 1630.32 682.57">
  <defs>
    <style>
      .cls-1 {
        fill: #c8d5d3;
      }

      .cls-1, .cls-2, .cls-3, .cls-4, .cls-5, .cls-6 {
        stroke-width: 0px;
      }

      .cls-2 {
        fill: #125899;
      }

      .cls-3 {
        fill: #4e93b0;
      }

      .cls-4 {
        fill: #b4cee9;
      }

      .cls-5 {
        fill: #2a9ad6;
      }

      .cls-6 {
        fill: #fff;
      }
    </style>
  </defs>
  <g>
    <path class="cls-4" d="M512.96,288.58c-107.92,0-195.42,87.5-195.42,195.42s87.5,195.42,195.42,195.42,195.42-87.5,195.42-195.42-87.49-195.42-195.42-195.42ZM512.96,606.32c-67.55,0-122.31-54.76-122.31-122.31s54.76-122.31,122.31-122.31,122.31,54.76,122.31,122.31-54.76,122.31-122.31,122.31h0Z"/>
    <path class="cls-6" d="M512.96,681.44c-108.85,0-197.44-88.55-197.44-197.44s88.56-197.44,197.44-197.44,197.44,88.55,197.44,197.44-88.56,197.44-197.44,197.44ZM512.96,290.61c-106.64,0-193.39,86.76-193.39,193.39s86.76,193.39,193.39,193.39,193.39-86.76,193.39-193.39-86.76-193.39-193.39-193.39ZM512.96,608.34c-68.58,0-124.34-55.79-124.34-124.34s55.79-124.34,124.34-124.34,124.34,55.79,124.34,124.34-55.79,124.34-124.34,124.34ZM512.96,363.71c-66.33,0-120.29,53.96-120.29,120.29s53.96,120.29,120.29,120.29,120.29-53.96,120.29-120.29-53.96-120.29-120.29-120.29h0Z"/>
  </g>
  <g>
    <path class="cls-2" d="M555.84,196.62c.06-7-.29-14-1.03-20.97-7.87-73.11-60.67-139.5-130.15-163.65-69.48-24.15-152.06-4.82-203.58,47.67-51.52,52.45-69.38,135.39-43.97,204.41,25.41,69.03,92.73,120.61,165.96,127.16-10.89,30.8-14.33,64.21-9.96,96.59.35,2.57.77,5.24,2.22,7.36,1.86,2.76,5.11,4.24,8.19,5.56,13.81,5.94,27.62,11.88,41.43,17.79,2.15-12.75,4.34-25.47,6.49-38.22,2.06-12.01,4.11-24.09,7.74-35.72,10.7-34.08,33.4-58.97,61.96-79.4,6.71-4.82,14.36-10.47,20.78-15.64,6.36-5.14,12.4-10.73,18.05-16.64,11.34-11.85,21.17-25.15,29.29-39.41,16.22-28.49,25.7-60.96,26.5-93.79,0-1.03.03-2.09.06-3.12v.03ZM360.52,326.84c-71.92,0-130.21-58.3-130.21-130.21s58.3-130.21,130.21-130.21,130.21,58.3,130.21,130.21-58.3,130.21-130.21,130.21Z"/>
    <path class="cls-6" d="M386.18,520.75l-43.23-18.6c-2.99-1.28-6.68-2.89-8.87-6.1-1.61-2.38-2.09-5.17-2.47-8.03-4.3-31.96-1.09-64.91,9.38-95.43-73.52-7.39-139.79-58.59-165.32-128-25.76-70.02-7.93-152.8,44.33-206.05C272.28,5.32,354.73-13.99,425.21,10.49c70.47,24.48,123.18,90.77,131.18,164.94.74,6.94,1.09,14.07,1.06,21.14h0c0,1.06,0,2.09-.06,3.15-.8,32.57-10.02,65.27-26.69,94.5-8.25,14.49-18.18,27.85-29.52,39.7-5.72,6.01-11.85,11.63-18.21,16.77-5.43,4.4-12.46,9.67-20.85,15.71-32.31,23.16-51.81,48.15-61.38,78.6-3.63,11.53-5.69,23.74-7.71,35.52l-6.84,40.15v.1ZM362.06,3.13c-51.71,0-103.3,20.36-139.88,57.62-51.46,52.39-68.99,133.88-43.62,202.77,25.34,68.9,91.51,119.62,164.65,126.17l1.99.19-.67,1.9c-10.79,30.58-14.23,63.73-9.86,95.85.32,2.51.74,4.88,1.99,6.71,1.54,2.31,4.21,3.57,7.52,5.01l39.6,17.02,6.17-36.26c2.02-11.88,4.11-24.19,7.81-35.94,9.76-31.16,29.61-56.63,62.54-80.2,8.35-5.97,15.32-11.24,20.72-15.58,6.26-5.04,12.27-10.6,17.92-16.51,11.15-11.66,20.91-24.83,29.07-39.09,16.41-28.81,25.5-61,26.27-93.05,0-1.03.03-2.06.06-3.08h0c.06-6.97-.29-13.97-1.03-20.78-7.87-73.01-59.74-138.24-129.09-162.33-20.04-6.97-41.08-10.34-62.09-10.34l-.06-.06ZM360.52,328.41c-72.66,0-131.79-59.13-131.79-131.79s59.13-131.79,131.79-131.79,131.79,59.13,131.79,131.79-59.13,131.79-131.79,131.79ZM360.52,67.95c-70.95,0-128.67,57.72-128.67,128.67s57.72,128.67,128.67,128.67,128.67-57.72,128.67-128.67-57.72-128.67-128.67-128.67Z"/>
  </g>
  <g>
    <path class="cls-5" d="M484.4,677.33c-24.96-15.58-43.43-39.73-56.98-65.46-18.73-35.56-29.68-74-32.7-114.03-1.73-23.09-2.25-46.54-8.87-68.9-8.32-28.07-23.03-54.12-42.69-75.8-19.56-21.58-43.88-38.74-70.82-49.85-23.61-9.73-49.08-14.68-74.61-14.68C89.39,288.62,1.54,376.46,1.54,484.81s87.85,196.19,196.19,196.19c65.46,0,123.41-32.09,159.03-81.36,49.34,68.58,127.61,77.73,127.61,77.73l.03-.03ZM197.73,604.36c-66.04,0-119.58-53.54-119.58-119.58s53.54-119.58,119.58-119.58,119.58,53.54,119.58,119.58-53.54,119.58-119.58,119.58Z"/>
    <path class="cls-6" d="M197.73,682.54C88.68,682.54,0,593.82,0,484.81s88.72-197.73,197.73-197.73c25.66,0,51.68,5.11,75.23,14.81,27.01,11.11,51.68,28.49,71.4,50.24,19.82,21.87,34.69,48.31,43.01,76.41,5.56,18.76,6.87,38.48,8.13,57.56.26,3.89.51,7.77.8,11.66,2.99,39.99,13.94,78.15,32.51,113.42,15.42,29.29,34.4,51.14,56.43,64.88l5.88,3.66-6.87-.8c-.77-.1-78.18-9.89-127.45-76.64-37.23,50.33-96.52,80.3-159.03,80.3l-.03-.03ZM197.73,290.16c-107.31,0-194.65,87.3-194.65,194.65s87.3,194.65,194.65,194.65c62.25,0,121.22-30.19,157.77-80.72l1.25-1.73,1.25,1.73c39.7,55.15,98.96,71.66,119.36,75.84-19.85-14.1-37.1-34.91-51.33-61.93-18.79-35.65-29.84-74.23-32.86-114.64-.29-3.89-.55-7.81-.8-11.69-1.25-18.89-2.54-38.45-8-56.85-8.19-27.69-22.84-53.7-42.33-75.23-19.4-21.39-43.68-38.51-70.28-49.43-23.16-9.54-48.76-14.58-74.04-14.58v-.06ZM197.73,605.93c-66.81,0-121.16-54.35-121.16-121.16s54.35-121.16,121.16-121.16,121.16,54.35,121.16,121.16-54.35,121.16-121.16,121.16ZM197.73,366.76c-65.08,0-118.04,52.93-118.04,118.04s52.93,118.04,118.04,118.04,118.04-52.93,118.04-118.04-52.93-118.04-118.04-118.04Z"/>
  </g>
  <polygon class="cls-4" points="577.1 408.78 581.53 422.43 595.86 422.43 584.26 430.88 588.7 444.49 577.1 436.08 565.47 444.49 569.91 430.88 558.31 422.43 572.67 422.43 577.1 408.78"/>
  <polygon class="cls-4" points="595.86 473.92 600.29 487.54 614.65 487.54 603.05 495.98 607.49 509.63 595.86 501.19 584.26 509.63 588.7 495.98 577.1 487.54 591.43 487.54 595.86 473.92"/>
  <polygon class="cls-4" points="564.38 529.74 568.81 543.39 583.14 543.39 571.54 551.84 575.98 565.49 564.38 557.04 552.75 565.49 557.19 551.84 545.59 543.39 559.95 543.39 564.38 529.74"/>
  <polygon class="cls-4" points="492.37 549.5 496.8 563.15 511.16 563.15 499.53 571.56 503.96 585.21 492.37 576.8 480.77 585.21 485.21 571.56 473.58 563.15 487.94 563.15 492.37 549.5"/>
  <path class="cls-2" d="M941.15,263.34h-35.59l-87.33-101.27c-3.15-3.76-5.07-6.3-5.78-7.61h-.61v107.35h-25.54V43.77h25.54v102.46h.61c1.41-2.22,3.34-4.72,5.78-7.45l86.15-95.01h31.77l-98.16,104.58,103.14,114.96.03.03Z"/>
  <path class="cls-2" d="M966.91,261.8V43.77h56.79c72.46,0,108.73,35.43,108.73,106.29,0,33.66-10.05,60.67-30.19,81.1s-47.06,30.64-80.81,30.64h-54.51ZM991,66.89v171.78h30.71c26.98,0,47.96-7.64,62.96-22.97,15-15.29,22.52-37,22.52-65.08,0-55.86-28.01-83.77-84.06-83.77h-32.12v.03Z"/>
  <path class="cls-2" d="M1263.47,66.89h-52.07v194.9h-25.54V66.89h-53.45v-23.09h131.05v23.09Z"/>
  <path class="cls-2" d="M1630.32,176.26c0,62.47-26.5,93.69-79.5,93.69s-76.16-30.03-76.16-90.13V43.77h24.51v134.36c0,45.61,18.08,68.42,54.25,68.42s52.36-22.03,52.36-66.1V43.77h24.51v132.5h.03Z"/>
  <rect class="cls-1" x="786.3" y="315.24" width="844.02" height="3.12"/>
  <path class="cls-2" d="M1401.14,43.77v202.36c0,12.66-10.25,22.9-22.9,22.9-8.06,0-15.13-4.18-19.21-10.47l-10.15,18.18c8.13,7.84,19.18,12.66,31.35,12.66,24.31,0,44.1-19.21,45.16-43.27V43.77s-24.25,0-24.25,0Z"/>
  <g>
    <path class="cls-3" d="M852.66,429.05v-60.64h38.32v4.98h-32.76v22.55h29.58v4.98h-29.58v23.16h33.57v4.98h-39.12Z"/>
    <path class="cls-3" d="M848.71,531.67v-60.64h38.32v4.98h-32.76v22.55h29.58v4.98h-29.58v23.16h33.57v4.98h-39.12Z"/>
    <path class="cls-3" d="M1232.03,634.52v-60.64h38.32v4.98h-32.76v22.55h29.58v4.98h-29.58v23.16h33.57v4.98h-39.12Z"/>
    <path class="cls-3" d="M919.79,396.8l17.38-29.94h6.33l-20.81,35.08v27.14h-5.52v-26.69l-20.69-35.49h6.39l16.96,29.94-.03-.03Z"/>
    <polygon class="cls-3" points="838.85 365.29 810.36 395.32 804.45 395.32 804.45 366.86 798.89 366.86 798.89 429.05 804.45 429.05 804.45 405.02 804.45 400.84 810.77 400.84 838.85 430.59 838.85 422.72 815.91 397.98 838.85 373.25 838.85 365.29"/>
    <polygon class="cls-3" points="1474.47 571.37 1446.01 601.4 1440.1 601.4 1440.1 572.94 1434.55 572.94 1434.55 635.13 1440.1 635.13 1440.1 611.1 1440.1 606.96 1446.43 606.96 1474.47 636.67 1474.47 628.8 1451.54 604.07 1474.47 579.33 1474.47 571.37"/>
    <path class="cls-3" d="M973.66,429.05v-62.18h18.28c2.99,0,5.85.22,8.67.67,2.79.51,5.36,1.83,7.81,3.95,3.53,3.12,5.91,7.23,7.13,12.27,1.22,5.01,1.83,9.7,1.77,14.1,0,4.14-.45,8.29-1.35,12.46-1,4.18-2.73,7.9-5.2,11.15-2.47,3.08-5.36,5.14-8.61,6.1-3.24,1-6.68,1.48-10.28,1.48h-18.21,0ZM978.79,424.07h12.01c2.25.06,4.4-.1,6.49-.51,2.02-.39,4.02-1.16,5.97-2.31,3.47-2.38,5.85-5.75,7.1-10.15,1.22-4.46,1.83-8.87,1.77-13.23.06-4.72-.51-9.25-1.7-13.59-1.28-4.24-3.79-7.61-7.45-10.09-1.57-1.03-3.44-1.7-5.56-1.99-2.15-.26-4.37-.39-6.62-.39h-12.01v52.26Z"/>
    <path class="cls-3" d="M1174.05,634.52v-62.18h18.28c2.99,0,5.85.22,8.67.67,2.79.51,5.36,1.83,7.81,3.95,3.53,3.12,5.91,7.23,7.13,12.27,1.22,5.01,1.83,9.7,1.77,14.1,0,4.14-.45,8.29-1.35,12.46-1,4.18-2.73,7.9-5.2,11.15-2.47,3.08-5.36,5.14-8.61,6.1-3.24,1-6.68,1.48-10.28,1.48h-18.21,0ZM1179.19,629.54h12.01c2.25.06,4.4-.1,6.49-.51,2.02-.39,4.02-1.16,5.97-2.31,3.47-2.38,5.85-5.75,7.1-10.15,1.22-4.46,1.83-8.87,1.77-13.23.06-4.72-.51-9.25-1.7-13.59-1.28-4.24-3.79-7.61-7.45-10.09-1.57-1.03-3.44-1.7-5.56-1.99-2.15-.26-4.37-.39-6.62-.39h-12.01v52.26Z"/>
    <path class="cls-3" d="M1029.51,429.05v-62.18h5.52v62.18h-5.52Z"/>
    <path class="cls-3" d="M1094.33,418.41c-1.73,3.73-4.11,6.68-7.13,8.87-3.15,2.18-7.23,3.31-12.3,3.37-6.71,0-12.14-2.76-16.32-8.32-4.3-5.52-6.46-13.78-6.52-24.76,0-9.38,1.96-17.09,5.91-23.06,3.95-6.1,10.02-9.22,18.15-9.31,5.62,0,10.37,1.61,14.26,4.82,3.85,3.31,6.36,8.25,7.52,14.9h-5.04c-.93-4.72-2.86-8.38-5.85-10.92-2.99-2.57-6.46-3.85-10.47-3.85-6.78.06-11.76,2.79-14.87,8.22-3.12,5.4-4.66,12.59-4.63,21.52,0,7.03,1.67,13.04,4.98,17.99,3.28,5.07,7.9,7.64,13.84,7.77,2.96,0,5.85-.84,8.74-2.51,2.86-1.7,5.17-4.5,6.94-8.42,1.54-3.92,2.28-6.65,2.22-11.34h-17.54v-4.98h22.16s.35,11.66-4.14,19.95l.1.06Z"/>
    <path class="cls-3" d="M1613.36,624.53c-1.73,3.73-4.11,6.68-7.13,8.87-3.15,2.18-7.23,3.31-12.3,3.37-6.71,0-12.14-2.76-16.32-8.32-4.3-5.52-6.46-13.78-6.52-24.76,0-9.38,1.96-17.09,5.91-23.06,3.95-6.1,10.02-9.22,18.15-9.31,5.62,0,10.37,1.61,14.26,4.82,3.85,3.31,6.36,8.25,7.52,14.9h-5.04c-.93-4.72-2.86-8.38-5.85-10.92-2.99-2.57-6.46-3.85-10.47-3.85-6.78.06-11.76,2.79-14.87,8.22-3.12,5.4-4.66,12.59-4.63,21.52,0,7.03,1.67,13.04,4.98,17.99,3.28,5.07,7.9,7.64,13.84,7.77,2.95,0,5.85-.84,8.74-2.51,2.86-1.7,5.17-4.5,6.94-8.42,1.54-3.92,2.28-6.65,2.22-11.34h-17.54v-4.98h22.16s.35,11.66-4.14,19.95l.1.06Z"/>
    <path class="cls-3" d="M1272.18,522.71c-1.73,3.73-4.11,6.68-7.13,8.87-3.15,2.18-7.23,3.31-12.3,3.37-6.71,0-12.14-2.76-16.32-8.32-4.3-5.52-6.46-13.78-6.52-24.76,0-9.38,1.96-17.09,5.91-23.06,3.95-6.1,10.02-9.22,18.15-9.31,5.62,0,10.37,1.61,14.26,4.82,3.85,3.31,6.36,8.25,7.52,14.9h-5.04c-.93-4.72-2.86-8.38-5.85-10.92-2.99-2.57-6.46-3.85-10.47-3.85-6.78.06-11.76,2.79-14.87,8.22-3.12,5.4-4.66,12.59-4.63,21.52,0,7.03,1.67,13.04,4.98,17.99,3.28,5.07,7.9,7.64,13.84,7.77,2.96,0,5.85-.84,8.74-2.51,2.86-1.7,5.17-4.5,6.94-8.42,1.54-3.92,2.28-6.65,2.22-11.34h-17.54v-4.98h22.16s.35,11.66-4.14,19.95l.1.06Z"/>
    <path class="cls-3" d="M1113.09,429.05v-62.18h5.52v62.18h-5.52Z"/>
    <path class="cls-3" d="M1131.24,366.86h41.92v6.52h-18.21v55.66h-5.52v-55.66h-18.18v-6.52h0Z"/>
    <path class="cls-3" d="M1328.26,572.94h41.92v6.52h-18.21v55.66h-5.52v-55.66h-18.18v-6.52h0Z"/>
    <path class="cls-3" d="M981.56,572.94h41.92v6.52h-18.21v55.66h-5.52v-55.66h-18.18v-6.52h0Z"/>
    <path class="cls-3" d="M1174.69,429.05l22.55-62.18h6.17l22,62.18h-5.59l-6.62-16.41h-26.18l-6.78,16.41h-5.56ZM1188.86,407.62h22.52l-11.27-35.81-11.27,35.81h.03Z"/>
    <path class="cls-3" d="M1376.28,634.29l22.55-62.18h6.17l22,62.18h-5.59l-6.62-16.41h-26.18l-6.78,16.41h-5.56ZM1390.44,612.9h22.52l-11.27-35.81-11.27,35.81h.03Z"/>
    <path class="cls-3" d="M1234.95,429.05v-62.18h5.52v57.21h30.8v4.98h-36.33Z"/>
    <path class="cls-3" d="M1130.34,531.67v-62.18h5.52v57.21h30.8v4.98h-36.33Z"/>
    <path class="cls-3" d="M793.4,469.48h41.92v4.98h-18.21v57.21h-5.52v-57.21h-18.18v-4.98h0Z"/>
    <path class="cls-3" d="M933.57,487.54c-1.99-9.99-7.36-14.9-16.09-14.74-6.13.13-10.63,2.89-13.43,8.22-2.86,5.3-4.27,11.76-4.24,19.37,0,3.53.29,6.87.9,10.09.61,3.34,1.61,6.36,2.99,8.99,2.67,5.78,7.39,8.7,14.2,8.83,4.43-.06,8-1.7,10.7-4.95,2.7-3.08,4.53-7.16,5.46-12.17h5.01c-1.03,6.17-3.28,11.31-6.75,15.42-3.47,4.34-8.61,6.55-15.45,6.65-7.81-.16-13.46-3.47-16.9-9.86-3.47-6.2-5.17-13.84-5.14-22.87.03-11.82,2.31-20.24,6.84-25.31,4.4-5.01,10.05-7.48,16.96-7.42,11.02.06,17.63,6.62,19.85,19.72h-4.98l.06.03Z"/>
    <path class="cls-3" d="M953.61,531.57v-62.18h5.52v29.81h32.31v-29.81h5.52v62.18h-5.52v-27.4h-32.31v27.4h-5.52Z"/>
    <path class="cls-3" d="M1016.95,477.42h-.16v54.25h-5.52v-62.18h6.1l34.75,54.35h.16v-54.35h5.52v62.18h-6.39l-34.46-54.25Z"/>
    <path class="cls-3" d="M930.77,580.27h-.16v54.25h-5.52v-62.18h6.1l34.75,54.35h.16v-54.35h5.52v62.18h-6.39l-34.46-54.25Z"/>
    <path class="cls-3" d="M1517.96,580.27h-.16v54.25h-5.52v-62.18h6.1l34.75,54.35h.16v-54.35h5.52v62.18h-6.39l-34.46-54.25h0Z"/>
    <path class="cls-3" d="M1118.77,580.27h-.16v54.25h-5.52v-62.18h6.1l34.75,54.35h.16v-54.35h5.52v62.18h-6.39l-34.46-54.25Z"/>
    <path class="cls-3" d="M1070.69,500.67c0-9.35,2.02-17.09,6.04-23.25,3.98-6.26,9.73-9.48,17.25-9.57,8,.1,13.97,3.28,17.96,9.48,3.95,6.17,5.91,13.94,5.91,23.32s-1.96,16.73-5.91,23c-3.98,6.33-9.89,9.54-17.7,9.67-7.77-.1-13.62-3.34-17.57-9.67-3.98-6.23-5.97-13.91-5.97-22.97ZM1094.33,528.33c6.52-.1,11.27-2.92,14.26-8.42,2.92-5.36,4.4-11.76,4.4-19.24-.22-18.21-6.49-27.49-18.79-27.88-6.39.13-11.08,2.96-14.07,8.42-3.02,5.43-4.53,11.92-4.53,19.46,0,3.63.39,7.13,1.12,10.47.67,3.31,1.8,6.26,3.34,8.77,2.99,5.49,7.74,8.29,14.29,8.42h-.03Z"/>
    <path class="cls-3" d="M840.65,603.33c0-9.35,2.02-17.09,6.04-23.25,3.98-6.26,9.73-9.48,17.25-9.57,8,.1,13.97,3.28,17.96,9.48,3.95,6.17,5.91,13.94,5.91,23.32s-1.96,16.73-5.91,23c-3.98,6.33-9.89,9.54-17.7,9.67-7.77-.1-13.62-3.34-17.57-9.67-3.98-6.23-5.97-13.91-5.97-22.97ZM864.29,630.98c6.52-.1,11.27-2.92,14.26-8.42,2.92-5.36,4.4-11.76,4.4-19.24-.22-18.21-6.49-27.49-18.79-27.88-6.39.13-11.08,2.96-14.07,8.42-3.02,5.43-4.53,11.92-4.53,19.46,0,3.63.39,7.13,1.12,10.47.67,3.31,1.8,6.26,3.34,8.77,2.99,5.49,7.74,8.29,14.29,8.42h-.03Z"/>
    <path class="cls-3" d="M1170.74,500.67c0-9.35,2.02-17.09,6.04-23.25,3.98-6.26,9.73-9.48,17.25-9.57,8,.1,13.97,3.28,17.96,9.48,3.95,6.17,5.91,13.94,5.91,23.32s-1.96,16.73-5.91,23c-3.98,6.33-9.89,9.54-17.7,9.67-7.77-.1-13.62-3.34-17.57-9.67-3.98-6.23-5.97-13.91-5.97-22.97ZM1194.38,528.33c6.52-.1,11.27-2.92,14.26-8.42,2.92-5.36,4.4-11.76,4.4-19.24-.22-18.21-6.49-27.49-18.79-27.88-6.39.13-11.08,2.96-14.07,8.42-3.02,5.43-4.53,11.92-4.53,19.46,0,3.63.39,7.13,1.12,10.47.67,3.31,1.8,6.26,3.34,8.77,2.99,5.49,7.74,8.29,14.29,8.42h-.03Z"/>
    <path class="cls-3" d="M1292.22,531.67v-62.18h5.52v62.18h-5.52Z"/>
    <path class="cls-3" d="M1311.88,531.67v-62.18h38.32v4.98h-32.76v22.55h29.58v4.98h-29.58v24.73h33.57v4.98h-39.09l-.03-.03Z"/>
    <path class="cls-3" d="M1364.97,513.14c.55,5.46,2.31,9.38,5.33,11.76,2.99,2.38,6.71,3.53,11.18,3.47,5.17-.06,8.9-1.38,11.24-3.98,2.25-2.47,3.34-5.46,3.34-8.9,0-2.41-.48-4.4-1.45-5.94-.96-1.51-2.28-2.73-3.98-3.63-1.67-1-3.5-1.77-5.52-2.38-2.09-.55-4.27-1.12-6.55-1.64-2.18-.55-4.3-1.22-6.36-1.99-2.09-.74-3.98-1.73-5.69-2.99-1.57-1.25-2.89-2.92-3.89-4.95-1.06-1.96-1.61-4.43-1.61-7.42,0-4.5,1.64-8.42,4.95-11.69,3.28-3.21,8.13-4.88,14.49-4.98,6.46.06,11.27,1.86,14.52,5.46,3.18,3.53,4.75,7.9,4.69,13.14h-5.14c-.06-4.72-1.48-8.22-4.24-10.47-2.76-2.09-6.04-3.12-9.83-3.12-5.65.13-9.6,1.61-11.85,4.43s-3.15,5.91-2.67,9.31c.32,1.96,1.12,3.57,2.41,4.75,1.22,1.25,2.67,2.28,4.43,2.99,1.77.77,3.73,1.38,5.81,1.9,2.06.55,4.18,1.06,6.33,1.57,2.18.48,4.3,1.09,6.3,1.83,1.99.77,3.76,1.8,5.3,3.12,1.57,1.25,2.79,2.89,3.69,4.85.93,2.06,1.38,4.59,1.38,7.58-.22,11.92-7.23,17.99-21.07,18.15-6.13,0-11.08-1.7-14.84-5.11-4.05-3.34-6.1-8.38-6.17-15.1h5.43l.03-.03Z"/>
    <path class="cls-3" d="M799.44,614.63c0,1.96.1,3.89.32,5.72.19,1.93.55,3.66,1.12,5.2.71,1.48,1.73,2.7,3.08,3.63,1.41,1,3.34,1.48,5.78,1.48,6.87-.06,10.21-4.56,10.05-13.52v-45h5.52v45.19c.06,12.33-5.36,18.53-16.25,18.66-3.21-.06-5.78-.67-7.74-1.8-1.99-1.16-3.53-2.73-4.66-4.75-1.06-1.99-1.8-4.27-2.18-6.84-.42-2.54-.61-5.17-.61-7.93h5.52l.03-.03Z"/>
    <path class="cls-3" d="M904.28,634.29v-62.18h5.52v62.18h-5.52Z"/>
    <path class="cls-3" d="M1053.79,572.11h5.59v37.07c-.16,14.74,5.49,22,16.96,21.78,11.6.06,17.25-7.19,16.96-21.78v-37.07h5.59v38.77c0,16.54-7.52,24.89-22.58,25.05-15.06-.22-22.58-8.58-22.52-25.05v-38.77h0Z"/>
    <path class="cls-3" d="M1285.03,606.67v28.81h-5.52v-63.37h22.52c12.94-.13,19.5,5.4,19.59,16.64.1,7.52-3.05,12.66-9.44,15.48,1.8.67,3.18,1.57,4.21,2.7.96,1.25,1.67,2.67,2.09,4.24.51,1.57.84,3.24,1,5.04.16,1.73.22,3.47.16,5.17.16,4.66.42,7.93.8,9.89.39,1.86.93,3.05,1.61,3.6v.61h-6.1c-.55-1.19-.93-2.7-1.12-4.56-.26-1.83-.45-3.79-.61-5.85-.06-2.15-.13-4.18-.22-6.07-.19-1.86-.39-3.37-.58-4.56-.32-1.77-.8-3.18-1.45-4.18-.67-1.06-1.54-1.86-2.6-2.38-1-.51-2.12-.87-3.34-1.06-.64-.13-1.28-.16-1.9-.16h-19.08,0ZM1301.86,601.63c4.14,0,7.52-1,10.15-3.02,2.67-1.99,4.02-5.2,4.08-9.6,0-2.34-.39-4.3-1.12-5.88-.74-1.61-1.8-2.79-3.12-3.6-2.63-1.61-5.88-2.38-9.7-2.31h-17.12v24.41h16.83Z"/>
    <path class="cls-3" d="M1487.93,634.29v-62.18h5.52v62.18h-5.52Z"/>
  </g>
</svg>