<svg width="156" height="44" viewBox="0 0 156 44" fill="none" xmlns="http://www.w3.org/2000/svg">
<path d="M0 43.8063V0H8.16488L11.6821 22.7073L11.9807 25.0322H12.1002L12.3988 22.7073L15.916 0H24.0809V43.8063H18.1214V14.4229H17.7631L17.5242 16.27L13.7105 43.8063H10.3725L6.55878 16.27L6.31989 14.4229H5.96156V43.8063H0.00213339H0Z" fill="#2060CD"/>
<path d="M30.186 43.8063L36.8024 0H44.6708L51.2872 43.8063H45.0291L43.8368 34.865H37.6385L36.4462 43.8063H30.1882H30.186ZM38.5301 28.0716H42.941L41.0939 13.3501L40.9147 11.0252H40.5564L40.3772 13.3501L38.5301 28.0716Z" fill="#2060CD"/>
<path d="M58.7024 43.8063V6.61424H52.6235V0H71.2185V6.61424H65.1396V43.8063H58.7024Z" fill="#2060CD"/>
<path d="M76.8768 43.8063V0H83.314V43.8063H76.8768Z" fill="#2060CD"/>
<path d="M141.278 43.8063V0H156V6.61424H147.716V18.4158H153.675V24.853H147.716V37.1899H156V43.8063H141.278Z" fill="#2060CD"/>
<path d="M109.03 20.715C109.03 20.715 109.024 20.715 109.02 20.715C109.02 18.2302 109.02 15.7432 109.02 13.2583C109.02 12.6867 108.943 12.6142 108.363 12.612C107.561 12.6099 106.761 12.5907 105.959 12.612C104.223 12.6611 103.018 13.8598 103.003 15.6088C102.975 19.0961 102.988 22.5835 102.984 26.0709C102.981 27.3634 103.03 28.6581 102.802 29.9443C102.109 33.8369 98.8883 37.0278 94.9765 37.5589C93.7479 37.7252 92.4874 37.6826 91.2417 37.7103C90.5784 37.7252 90.4504 37.7764 90.4419 38.4163C90.4184 40.0309 90.4312 41.6434 90.4376 43.2581C90.4376 43.5417 90.5635 43.7764 90.8855 43.7828C93.3128 43.8233 95.755 43.8894 98.0885 43.0746C102.333 41.5944 105.658 39.0242 107.565 34.8415C108.333 33.1565 108.755 31.3797 108.956 29.539C109.173 27.5383 109.062 25.5398 109.033 23.5369C109.018 22.5942 109.03 21.6514 109.03 20.7108V20.715Z" fill="#19A7CE"/>
<path d="M133.842 13.8192C133.313 13.8149 132.784 13.8149 132.255 13.8171C132.033 13.8171 131.939 13.9408 131.939 14.1519C131.939 14.6809 131.939 15.2099 131.939 15.7389C131.939 15.9756 132.052 16.078 132.287 16.0716C132.545 16.0652 132.803 16.0716 133.063 16.0695C133.334 16.0695 133.603 16.0695 133.874 16.0695C134.094 16.0695 134.194 15.9649 134.194 15.7453C134.19 15.2163 134.19 14.6873 134.194 14.1583C134.196 13.9131 134.062 13.8192 133.842 13.8192Z" fill="#19A7CE"/>
<path d="M134.194 19.2817C134.194 19.0343 134.188 18.789 134.197 18.5416C134.207 18.2942 134.115 18.1683 133.853 18.1726C133.337 18.179 132.819 18.179 132.302 18.1726C132.072 18.1705 131.961 18.2494 131.963 18.4968C131.968 19.0236 131.936 19.5526 131.963 20.0794C131.97 20.1967 132.164 20.3951 132.279 20.3994C132.829 20.425 133.384 20.4122 133.934 20.3759C134.026 20.3695 134.167 20.1989 134.182 20.0901C134.218 19.8256 134.194 19.5505 134.194 19.2817Z" fill="#19A7CE"/>
<path d="M129.981 16.558C129.463 16.5644 128.945 16.5644 128.426 16.558C128.207 16.5559 128.098 16.6433 128.1 16.8694C128.102 17.4112 128.1 17.953 128.096 18.4947C128.096 18.7229 128.219 18.8125 128.428 18.8104C128.959 18.8061 129.488 18.7976 130.02 18.7912C130.22 18.7891 130.316 18.6952 130.31 18.484C130.301 18.2132 130.308 17.9423 130.308 17.6714H130.327C130.327 17.4112 130.322 17.1531 130.327 16.8929C130.331 16.6561 130.22 16.5516 129.983 16.5537L129.981 16.558Z" fill="#19A7CE"/>
<path d="M134.157 23.503C134.157 22.6029 134.143 22.588 133.236 22.5944C132.952 22.5944 132.671 22.5944 132.387 22.588C132.069 22.5816 131.922 22.7309 131.924 23.0487C131.929 23.5776 131.924 24.1066 131.924 24.6761H130.301C130.301 24.5375 130.301 24.4116 130.301 24.2858C130.301 23.3558 130.297 22.4237 130.301 21.4938C130.301 21.2016 130.19 21.0629 129.881 21.0693C129.456 21.0778 129.032 21.0523 128.61 21.0437C128.138 21.0331 128.104 21.0629 128.102 21.5322C128.096 23.6651 128.089 25.7959 128.089 27.9288C128.089 29.0785 127.995 30.2196 127.567 31.2946C126.095 34.9889 123.435 37.2029 119.43 37.6337C118.416 37.7425 117.384 37.6956 116.36 37.702C115.684 37.7062 115.543 37.8278 115.545 38.4954C115.548 40.0141 115.552 41.5348 115.556 43.0535C115.558 43.687 115.641 43.7766 116.264 43.7851C118.446 43.8171 120.645 43.8747 122.746 43.2028C128.774 41.2725 132.652 37.3202 133.891 31.0088C134.087 30.0127 134.106 28.9761 134.134 27.9566C134.175 26.4742 134.149 24.9875 134.153 23.503H134.157Z" fill="#19A7CE"/>
<path d="M116.014 31.2092C117.061 31.1921 118.117 31.2476 119.149 31.1111C120.581 30.9234 121.579 29.7396 121.596 28.2999C121.626 26.039 121.604 23.7759 121.604 21.515C121.621 21.515 121.638 21.515 121.658 21.515C121.658 19.3479 121.577 17.1766 121.675 15.0138C121.86 10.9527 124.627 7.57412 128.536 6.45219C129.801 6.08959 131.092 6.07253 132.388 6.09386C132.777 6.10026 133.167 6.10666 133.555 6.09599C133.988 6.08533 134.187 5.8955 134.189 5.46251C134.195 3.84788 134.195 2.23538 134.187 0.620745C134.184 0.19629 134.033 0.0149914 133.662 0.0149914C131.578 0.0085926 129.477 -0.104452 127.442 0.445846C121.4 2.08181 117.575 5.95949 115.954 12.0021C115.636 13.1901 115.536 14.4123 115.534 15.6409C115.525 20.5296 115.523 25.4183 115.519 30.307C115.519 30.4712 115.521 30.6376 115.551 30.7997C115.596 31.0471 115.754 31.2113 116.012 31.2071L116.014 31.2092ZM117.874 12.1578C117.874 11.9445 117.968 11.8741 118.168 11.8763C118.616 11.8827 119.062 11.8827 119.51 11.8763C119.738 11.872 119.815 11.9829 119.806 12.1962C119.798 12.4095 119.806 12.6228 119.806 12.8361C119.806 13.0707 119.828 13.3053 119.796 13.5357C119.783 13.6295 119.661 13.7788 119.582 13.7831C119.107 13.813 118.627 13.8258 118.151 13.8023C118.051 13.798 117.882 13.6274 117.878 13.525C117.852 13.0707 117.882 12.6121 117.878 12.1557L117.874 12.1578Z" fill="#19A7CE"/>
<path d="M91.27 31.2262C91.976 31.2135 92.6842 31.2156 93.3902 31.2113C95.2032 31.2007 96.5 29.9017 96.5042 28.0802C96.5128 23.8975 96.5128 19.7148 96.5234 15.5321C96.5277 14.0369 96.8284 12.6014 97.543 11.2833C99.3474 7.95591 102.165 6.24102 105.945 6.11305C106.757 6.08532 107.57 6.11305 108.383 6.10878C108.935 6.10878 109.061 5.99147 109.059 5.45397C109.059 3.81587 109.052 2.17778 109.044 0.539685C109.042 0.0939007 108.967 0.0299097 108.53 0.0235109C106.631 -0.0106161 104.731 -0.0404752 102.863 0.345586C98.3834 1.27128 94.9771 3.73909 92.618 7.6381C91.1484 10.0675 90.436 12.7294 90.419 15.5705C90.4062 17.938 90.4168 20.3077 90.4168 22.6753C90.4104 22.6753 90.4019 22.6753 90.3955 22.6753C90.3955 25.2434 90.3955 27.8114 90.3955 30.3816C90.3955 31.1196 90.532 31.239 91.2679 31.2262H91.27ZM92.8804 12.1578C92.8804 11.9445 92.9742 11.8741 93.1747 11.8762C93.6226 11.8826 94.0684 11.8826 94.5163 11.8762C94.7446 11.872 94.8214 11.9829 94.8128 12.1962C94.8043 12.4095 94.8128 12.6228 94.8128 12.8361C94.8128 13.0707 94.8342 13.3053 94.8022 13.5357C94.7894 13.6295 94.6678 13.7788 94.5889 13.7831C94.1132 13.8129 93.6333 13.8258 93.1577 13.8023C93.0574 13.798 92.8889 13.6274 92.8847 13.525C92.8591 13.0707 92.8889 12.6121 92.8847 12.1557L92.8804 12.1578Z" fill="#19A7CE"/>
</svg>
